<?xml version="1.0" encoding="UTF-8" standalone="no"?>
<!DOCTYPE svg PUBLIC "-//W3C//DTD SVG 1.1//EN"
 "http://www.w3.org/Graphics/SVG/1.1/DTD/svg11.dtd">
<!-- Generated by graphviz version 2.38.0 (20140413.2041)
 -->
<!-- Title: %3 Pages: 1 -->
<svg width="1168pt" height="815pt"
 viewBox="0.00 0.00 1168.00 815.00" xmlns="http://www.w3.org/2000/svg" xmlns:xlink="http://www.w3.org/1999/xlink">
<g id="graph0" class="graph" transform="scale(1 1) rotate(0) translate(4 811)">
<title>%3</title>
<polygon fill="white" stroke="none" points="-4,4 -4,-811 1164,-811 1164,4 -4,4"/>
<text text-anchor="middle" x="580" y="-7.8" font-family="Times,serif" font-size="14.00">Animation module (makes for more resuable objects)</text>
<g id="clust1" class="cluster"><title>cluster_qt</title>
<polygon fill="none" stroke="black" points="478,-31 478,-106 1152,-106 1152,-31 478,-31"/>
<text text-anchor="middle" x="815" y="-90.8" font-family="Times,serif" font-size="14.00">Qt</text>
</g>
<g id="clust2" class="cluster"><title>cluster_cels</title>
<polygon fill="none" stroke="black" points="200,-139 200,-475 649,-475 649,-139 200,-139"/>
<text text-anchor="middle" x="424.5" y="-459.8" font-family="Times,serif" font-size="14.00">Cel System</text>
</g>
<g id="clust5" class="cluster"><title>cluster_frames</title>
<polygon fill="none" stroke="black" points="8,-400 8,-583 138,-583 138,-400 8,-400"/>
<text text-anchor="middle" x="73" y="-567.8" font-family="Times,serif" font-size="14.00">Frame System</text>
</g>
<g id="clust6" class="cluster"><title>cluster_xsheet</title>
<polygon fill="none" stroke="black" points="128,-616 128,-691 226,-691 226,-616 128,-616"/>
<text text-anchor="middle" x="177" y="-675.8" font-family="Times,serif" font-size="14.00">XSheet system</text>
</g>
<g id="clust7" class="cluster"><title>cluster_animation</title>
<polygon fill="none" stroke="black" points="804,-616 804,-799 1056,-799 1056,-616 804,-616"/>
<text text-anchor="middle" x="930" y="-783.8" font-family="Times,serif" font-size="14.00">Animation</text>
</g>
<g id="clust9" class="cluster"><title>cluster_timeline</title>
<polygon fill="none" stroke="black" points="35,-724 35,-799 209,-799 209,-724 35,-724"/>
<text text-anchor="middle" x="122" y="-783.8" font-family="Times,serif" font-size="14.00">Timeline</text>
</g>
<g id="clust10" class="cluster"><title>cluster_drawing</title>
<polygon fill="none" stroke="black" points="866,-508 866,-583 954,-583 954,-508 866,-508"/>
<text text-anchor="middle" x="910" y="-567.8" font-family="Times,serif" font-size="14.00">Drawing</text>
</g>
<!-- QObject -->
<g id="node1" class="node"><title>QObject</title>
<ellipse fill="none" stroke="black" cx="526" cy="-57" rx="40.0939" ry="18"/>
<text text-anchor="middle" x="526" y="-53.3" font-family="Times,serif" font-size="14.00">QObject</text>
</g>
<!-- QGraphicsObject -->
<g id="node2" class="node"><title>QGraphicsObject</title>
<ellipse fill="none" stroke="black" cx="656" cy="-57" rx="72.2875" ry="18"/>
<text text-anchor="middle" x="656" y="-53.3" font-family="Times,serif" font-size="14.00">QGraphicsObject</text>
</g>
<!-- QWidget -->
<g id="node3" class="node"><title>QWidget</title>
<ellipse fill="none" stroke="black" cx="790" cy="-57" rx="43.5923" ry="18"/>
<text text-anchor="middle" x="790" y="-53.3" font-family="Times,serif" font-size="14.00">QWidget</text>
</g>
<!-- QGraphicsScene -->
<g id="node4" class="node"><title>QGraphicsScene</title>
<ellipse fill="none" stroke="black" cx="921" cy="-57" rx="69.5877" ry="18"/>
<text text-anchor="middle" x="921" y="-53.3" font-family="Times,serif" font-size="14.00">QGraphicsScene</text>
</g>
<!-- QGraphicsView -->
<g id="node5" class="node"><title>QGraphicsView</title>
<ellipse fill="none" stroke="black" cx="1076" cy="-57" rx="67.6881" ry="18"/>
<text text-anchor="middle" x="1076" y="-53.3" font-family="Times,serif" font-size="14.00">QGraphicsView</text>
</g>
<!-- Cel -->
<g id="node6" class="node"><title>Cel</title>
<ellipse fill="none" stroke="black" cx="442" cy="-165" rx="27" ry="18"/>
<text text-anchor="middle" x="442" y="-161.3" font-family="Times,serif" font-size="14.00">Cel</text>
</g>
<!-- Cel&#45;&gt;QObject -->
<g id="edge1" class="edge"><title>Cel&#45;&gt;QObject</title>
<path fill="none" stroke="black" d="M454.035,-148.813C467.831,-131.404 490.626,-102.639 506.863,-82.1486"/>
<polygon fill="black" stroke="black" points="509.693,-84.2131 513.161,-74.2019 504.207,-79.8656 509.693,-84.2131"/>
<text text-anchor="middle" x="502.5" y="-117.8" font-family="Times,serif" font-size="14.00">inherits</text>
</g>
<!-- PNGCel -->
<g id="node7" class="node"><title>PNGCel</title>
<ellipse fill="none" stroke="black" cx="337" cy="-252" rx="40.0939" ry="18"/>
<text text-anchor="middle" x="337" y="-248.3" font-family="Times,serif" font-size="14.00">PNGCel</text>
</g>
<!-- PNGCel&#45;&gt;Cel -->
<g id="edge2" class="edge"><title>PNGCel&#45;&gt;Cel</title>
<path fill="none" stroke="black" d="M346.317,-234.108C352.759,-223.585 362.112,-210.322 373,-201 383.708,-191.832 397.232,-184.299 409.464,-178.601"/>
<polygon fill="black" stroke="black" points="411.183,-181.668 418.918,-174.428 408.357,-175.264 411.183,-181.668"/>
<text text-anchor="middle" x="405.5" y="-204.8" font-family="Times,serif" font-size="14.00">implements</text>
</g>
<!-- VectorCel -->
<g id="node8" class="node"><title>VectorCel</title>
<ellipse fill="none" stroke="black" cx="442" cy="-252" rx="46.5926" ry="18"/>
<text text-anchor="middle" x="442" y="-248.3" font-family="Times,serif" font-size="14.00">VectorCel</text>
</g>
<!-- VectorCel&#45;&gt;Cel -->
<g id="edge3" class="edge"><title>VectorCel&#45;&gt;Cel</title>
<path fill="none" stroke="black" d="M442,-233.799C442,-222.163 442,-206.548 442,-193.237"/>
<polygon fill="black" stroke="black" points="445.5,-193.175 442,-183.175 438.5,-193.175 445.5,-193.175"/>
<text text-anchor="middle" x="474.5" y="-204.8" font-family="Times,serif" font-size="14.00">implements</text>
</g>
<!-- LiveCameraCel -->
<g id="node9" class="node"><title>LiveCameraCel</title>
<ellipse fill="none" stroke="black" cx="574" cy="-252" rx="66.8882" ry="18"/>
<text text-anchor="middle" x="574" y="-248.3" font-family="Times,serif" font-size="14.00">LiveCameraCel</text>
</g>
<!-- LiveCameraCel&#45;&gt;Cel -->
<g id="edge4" class="edge"><title>LiveCameraCel&#45;&gt;Cel</title>
<path fill="none" stroke="black" d="M555.445,-234.638C543.274,-224.325 526.752,-211.099 511,-201 499.133,-193.391 485.4,-186.139 473.325,-180.23"/>
<polygon fill="black" stroke="black" points="474.595,-176.957 464.064,-175.797 471.573,-183.271 474.595,-176.957"/>
<text text-anchor="middle" x="563.5" y="-204.8" font-family="Times,serif" font-size="14.00">implements</text>
</g>
<!-- CelRef -->
<g id="node10" class="node"><title>CelRef</title>
<ellipse fill="none" stroke="black" cx="442" cy="-339" rx="35.9954" ry="18"/>
<text text-anchor="middle" x="442" y="-335.3" font-family="Times,serif" font-size="14.00">CelRef</text>
</g>
<!-- CelRef&#45;&gt;QObject -->
<g id="edge5" class="edge"><title>CelRef&#45;&gt;QObject</title>
<path fill="none" stroke="black" d="M478.033,-338.787C527.277,-337.617 613.629,-327.012 650,-270 658.605,-256.511 654.833,-249.252 650,-234 630.222,-171.59 579.46,-112.19 549.371,-80.8982"/>
<polygon fill="black" stroke="black" points="551.692,-78.2659 542.198,-73.5634 546.688,-83.1601 551.692,-78.2659"/>
<text text-anchor="middle" x="664.5" y="-204.8" font-family="Times,serif" font-size="14.00">inherits</text>
</g>
<!-- CelRef&#45;&gt;Cel -->
<g id="edge6" class="edge"><title>CelRef&#45;&gt;Cel</title>
<path fill="none" stroke="black" d="M406.247,-338.063C358.19,-335.977 274.267,-324.23 235,-270 188.895,-206.326 333.875,-179.256 405.017,-170.014"/>
<polygon fill="black" stroke="black" points="405.862,-173.436 415.354,-168.729 404.999,-166.49 405.862,-173.436"/>
<text text-anchor="middle" x="261.5" y="-248.3" font-family="Times,serif" font-size="14.00">pointer to</text>
</g>
<!-- CelRef&#45;&gt;PNGCel -->
<g id="edge7" class="edge"><title>CelRef&#45;&gt;PNGCel</title>
<path fill="none" stroke="black" d="M418.358,-325.307C407.739,-319.155 395.308,-311.306 385,-303 375.387,-295.254 365.77,-285.687 357.696,-277.001"/>
<polygon fill="black" stroke="black" points="360.069,-274.408 350.759,-269.351 354.883,-279.11 360.069,-274.408"/>
<text text-anchor="middle" x="411.5" y="-291.8" font-family="Times,serif" font-size="14.00">pointer to</text>
</g>
<!-- CelRef&#45;&gt;VectorCel -->
<g id="edge8" class="edge"><title>CelRef&#45;&gt;VectorCel</title>
<path fill="none" stroke="black" d="M442,-320.799C442,-309.163 442,-293.548 442,-280.237"/>
<polygon fill="black" stroke="black" points="445.5,-280.175 442,-270.175 438.5,-280.175 445.5,-280.175"/>
<text text-anchor="middle" x="468.5" y="-291.8" font-family="Times,serif" font-size="14.00">pointer to</text>
</g>
<!-- CelRef&#45;&gt;LiveCameraCel -->
<g id="edge9" class="edge"><title>CelRef&#45;&gt;LiveCameraCel</title>
<path fill="none" stroke="black" d="M464.044,-324.728C474.667,-318.264 487.557,-310.324 499,-303 513.272,-293.865 528.889,-283.513 542.159,-274.607"/>
<polygon fill="black" stroke="black" points="544.162,-277.478 550.503,-268.991 540.253,-271.671 544.162,-277.478"/>
<text text-anchor="middle" x="548.5" y="-291.8" font-family="Times,serif" font-size="14.00">pointer to</text>
</g>
<!-- CelRefItem -->
<g id="node11" class="node"><title>CelRefItem</title>
<ellipse fill="none" stroke="black" cx="589" cy="-426" rx="51.9908" ry="18"/>
<text text-anchor="middle" x="589" y="-422.3" font-family="Times,serif" font-size="14.00">CelRefItem</text>
</g>
<!-- CelRefItem&#45;&gt;QGraphicsObject -->
<g id="edge10" class="edge"><title>CelRefItem&#45;&gt;QGraphicsObject</title>
<path fill="none" stroke="black" d="M630.956,-415.283C667.61,-404.012 715,-381.428 715,-340 715,-340 715,-340 715,-164 715,-133.087 695.605,-102.776 679.055,-82.5396"/>
<polygon fill="black" stroke="black" points="681.586,-80.113 672.435,-74.7735 676.259,-84.6543 681.586,-80.113"/>
<text text-anchor="middle" x="735.5" y="-248.3" font-family="Times,serif" font-size="14.00">inherits</text>
</g>
<!-- CelRefItem&#45;&gt;CelRef -->
<g id="edge11" class="edge"><title>CelRefItem&#45;&gt;CelRef</title>
<path fill="none" stroke="black" d="M563.395,-410.194C538.523,-395.813 500.693,-373.938 473.883,-358.435"/>
<polygon fill="black" stroke="black" points="475.307,-355.216 464.898,-353.24 471.803,-361.276 475.307,-355.216"/>
<text text-anchor="middle" x="552" y="-378.8" font-family="Times,serif" font-size="14.00">visualizes</text>
</g>
<!-- Frame -->
<g id="node12" class="node"><title>Frame</title>
<ellipse fill="none" stroke="black" cx="90" cy="-426" rx="33.5952" ry="18"/>
<text text-anchor="middle" x="90" y="-422.3" font-family="Times,serif" font-size="14.00">Frame</text>
</g>
<!-- Frame&#45;&gt;QObject -->
<g id="edge12" class="edge"><title>Frame&#45;&gt;QObject</title>
<path fill="none" stroke="black" d="M88.0685,-407.769C86.3145,-390.615 84,-363.522 84,-340 84,-340 84,-340 84,-164 84,-84.2402 359.604,-64.3491 475.554,-59.51"/>
<polygon fill="black" stroke="black" points="475.75,-63.0051 485.604,-59.1118 475.473,-56.0106 475.75,-63.0051"/>
<text text-anchor="middle" x="104.5" y="-248.3" font-family="Times,serif" font-size="14.00">inherits</text>
</g>
<!-- Frame&#45;&gt;CelRef -->
<g id="edge13" class="edge"><title>Frame&#45;&gt;CelRef</title>
<path fill="none" stroke="black" d="M120.316,-417.679C183.338,-402.461 328.582,-367.388 400.335,-350.061"/>
<polygon fill="black" stroke="black" points="401.471,-353.388 410.37,-347.638 399.828,-346.583 401.471,-353.388"/>
<text text-anchor="middle" x="304" y="-378.8" font-family="Times,serif" font-size="14.00">list of</text>
</g>
<!-- TimedFrame -->
<g id="node13" class="node"><title>TimedFrame</title>
<ellipse fill="none" stroke="black" cx="73" cy="-534" rx="57.3905" ry="18"/>
<text text-anchor="middle" x="73" y="-530.3" font-family="Times,serif" font-size="14.00">TimedFrame</text>
</g>
<!-- TimedFrame&#45;&gt;QObject -->
<g id="edge14" class="edge"><title>TimedFrame&#45;&gt;QObject</title>
<path fill="none" stroke="black" d="M60.9408,-516.301C47.6113,-496.16 28,-460.787 28,-427 28,-427 28,-427 28,-164 28,-73.1856 348.82,-59.8652 475.46,-58.1447"/>
<polygon fill="black" stroke="black" points="475.71,-61.6421 485.668,-58.0256 475.628,-54.6426 475.71,-61.6421"/>
<text text-anchor="middle" x="48.5" y="-291.8" font-family="Times,serif" font-size="14.00">inherits</text>
</g>
<!-- TimedFrame&#45;&gt;Frame -->
<g id="edge15" class="edge"><title>TimedFrame&#45;&gt;Frame</title>
<path fill="none" stroke="black" d="M75.7313,-515.969C78.408,-499.279 82.5298,-473.579 85.6564,-454.084"/>
<polygon fill="black" stroke="black" points="89.1477,-454.417 87.2754,-443.988 82.236,-453.308 89.1477,-454.417"/>
<text text-anchor="middle" x="107.5" y="-486.8" font-family="Times,serif" font-size="14.00">pointer to</text>
</g>
<!-- XSheet -->
<g id="node14" class="node"><title>XSheet</title>
<ellipse fill="none" stroke="black" cx="173" cy="-642" rx="36.2938" ry="18"/>
<text text-anchor="middle" x="173" y="-638.3" font-family="Times,serif" font-size="14.00">XSheet</text>
</g>
<!-- XSheet&#45;&gt;QObject -->
<g id="edge16" class="edge"><title>XSheet&#45;&gt;QObject</title>
<path fill="none" stroke="black" d="M171.721,-623.806C168.094,-573.498 158,-422.218 158,-296.5 158,-296.5 158,-296.5 158,-164 158,-98.5017 375.982,-71.035 476.412,-61.8563"/>
<polygon fill="black" stroke="black" points="476.967,-65.3209 486.618,-60.9496 476.347,-58.3483 476.967,-65.3209"/>
<text text-anchor="middle" x="176" y="-335.3" font-family="Times,serif" font-size="14.00">iherits</text>
</g>
<!-- XSheet&#45;&gt;TimedFrame -->
<g id="edge17" class="edge"><title>XSheet&#45;&gt;TimedFrame</title>
<path fill="none" stroke="black" d="M148.596,-628.592C138.394,-622.653 126.875,-614.892 118,-606 104.891,-592.867 93.7032,-575.265 85.7617,-560.873"/>
<polygon fill="black" stroke="black" points="88.8076,-559.146 81.0242,-551.958 82.6262,-562.431 88.8076,-559.146"/>
<text text-anchor="middle" x="134" y="-594.8" font-family="Times,serif" font-size="14.00">list of</text>
</g>
<!-- Animation -->
<g id="node15" class="node"><title>Animation</title>
<ellipse fill="none" stroke="black" cx="861" cy="-750" rx="48.9926" ry="18"/>
<text text-anchor="middle" x="861" y="-746.3" font-family="Times,serif" font-size="14.00">Animation</text>
</g>
<!-- Animation&#45;&gt;QObject -->
<g id="edge18" class="edge"><title>Animation&#45;&gt;QObject</title>
<path fill="none" stroke="black" d="M839.959,-733.581C817.161,-714.922 784,-681.213 784,-643 784,-643 784,-643 784,-164 784,-139.9 595.88,-118.035 575,-106 564.148,-99.7445 553.941,-90.5258 545.681,-81.8351"/>
<polygon fill="black" stroke="black" points="548.268,-79.4771 538.957,-74.4215 543.083,-84.18 548.268,-79.4771"/>
<text text-anchor="middle" x="804.5" y="-378.8" font-family="Times,serif" font-size="14.00">inherits</text>
</g>
<!-- Animation&#45;&gt;XSheet -->
<g id="edge19" class="edge"><title>Animation&#45;&gt;XSheet</title>
<path fill="none" stroke="black" d="M816.916,-742.208C692.874,-723.097 341.807,-669.008 217.391,-649.839"/>
<polygon fill="black" stroke="black" points="217.862,-646.371 207.446,-648.307 216.796,-653.289 217.862,-646.371"/>
<text text-anchor="middle" x="633.5" y="-702.8" font-family="Times,serif" font-size="14.00">owns</text>
</g>
<!-- CelLibrary -->
<g id="node16" class="node"><title>CelLibrary</title>
<ellipse fill="none" stroke="black" cx="861" cy="-642" rx="49.2915" ry="18"/>
<text text-anchor="middle" x="861" y="-638.3" font-family="Times,serif" font-size="14.00">CelLibrary</text>
</g>
<!-- Animation&#45;&gt;CelLibrary -->
<g id="edge20" class="edge"><title>Animation&#45;&gt;CelLibrary</title>
<path fill="none" stroke="black" d="M861,-731.969C861,-715.378 861,-689.883 861,-670.431"/>
<polygon fill="black" stroke="black" points="864.5,-670.341 861,-660.341 857.5,-670.341 864.5,-670.341"/>
<text text-anchor="middle" x="875.5" y="-702.8" font-family="Times,serif" font-size="14.00">owns</text>
</g>
<!-- FrameLibrary -->
<g id="node17" class="node"><title>FrameLibrary</title>
<ellipse fill="none" stroke="black" cx="988" cy="-642" rx="59.5901" ry="18"/>
<text text-anchor="middle" x="988" y="-638.3" font-family="Times,serif" font-size="14.00">FrameLibrary</text>
</g>
<!-- Animation&#45;&gt;FrameLibrary -->
<g id="edge21" class="edge"><title>Animation&#45;&gt;FrameLibrary</title>
<path fill="none" stroke="black" d="M879.739,-733.359C901.188,-715.457 936.5,-685.985 960.934,-665.591"/>
<polygon fill="black" stroke="black" points="963.333,-668.147 968.767,-659.052 958.847,-662.773 963.333,-668.147"/>
<text text-anchor="middle" x="935.5" y="-702.8" font-family="Times,serif" font-size="14.00">owns</text>
</g>
<!-- Timeline -->
<g id="node18" class="node"><title>Timeline</title>
<ellipse fill="none" stroke="black" cx="158" cy="-750" rx="42.7926" ry="18"/>
<text text-anchor="middle" x="158" y="-746.3" font-family="Times,serif" font-size="14.00">Timeline</text>
</g>
<!-- Timeline&#45;&gt;XSheet -->
<g id="edge22" class="edge"><title>Timeline&#45;&gt;XSheet</title>
<path fill="none" stroke="black" d="M160.41,-731.969C162.772,-715.279 166.409,-689.579 169.167,-670.084"/>
<polygon fill="black" stroke="black" points="172.66,-670.38 170.596,-659.988 165.729,-669.399 172.66,-670.38"/>
<text text-anchor="middle" x="193" y="-702.8" font-family="Times,serif" font-size="14.00">visualizes</text>
</g>
<!-- Tick -->
<g id="node19" class="node"><title>Tick</title>
<ellipse fill="none" stroke="black" cx="70" cy="-750" rx="27" ry="18"/>
<text text-anchor="middle" x="70" y="-746.3" font-family="Times,serif" font-size="14.00">Tick</text>
</g>
<!-- Tick&#45;&gt;TimedFrame -->
<g id="edge23" class="edge"><title>Tick&#45;&gt;TimedFrame</title>
<path fill="none" stroke="black" d="M69.7966,-731.782C69.5432,-706.427 69.2307,-657.555 70,-616 70.3323,-598.052 71.0783,-577.879 71.7432,-562.155"/>
<polygon fill="black" stroke="black" points="75.2443,-562.205 72.1845,-552.061 68.251,-561.899 75.2443,-562.205"/>
<text text-anchor="middle" x="97" y="-638.3" font-family="Times,serif" font-size="14.00">visualizes</text>
</g>
<!-- Canvas -->
<g id="node20" class="node"><title>Canvas</title>
<ellipse fill="none" stroke="black" cx="910" cy="-534" rx="36.2938" ry="18"/>
<text text-anchor="middle" x="910" y="-530.3" font-family="Times,serif" font-size="14.00">Canvas</text>
</g>
<!-- Canvas&#45;&gt;QWidget -->
<g id="edge24" class="edge"><title>Canvas&#45;&gt;QWidget</title>
<path fill="none" stroke="black" d="M901.592,-516.214C892.111,-495.7 878,-459.679 878,-427 878,-427 878,-427 878,-164 878,-144.081 840.749,-105.211 814.72,-80.4816"/>
<polygon fill="black" stroke="black" points="817.074,-77.8916 807.386,-73.6035 812.286,-82.9974 817.074,-77.8916"/>
<text text-anchor="middle" x="898.5" y="-291.8" font-family="Times,serif" font-size="14.00">inherits</text>
</g>
<!-- Canvas&#45;&gt;QGraphicsScene -->
<g id="edge25" class="edge"><title>Canvas&#45;&gt;QGraphicsScene</title>
<path fill="none" stroke="black" d="M918.408,-516.214C927.889,-495.7 942,-459.679 942,-427 942,-427 942,-427 942,-164 942,-136.592 935.161,-105.945 929.288,-84.6818"/>
<polygon fill="black" stroke="black" points="932.647,-83.6947 926.518,-75.0526 925.919,-85.6305 932.647,-83.6947"/>
<text text-anchor="middle" x="965" y="-291.8" font-family="Times,serif" font-size="14.00">contains</text>
</g>
<!-- Canvas&#45;&gt;QGraphicsView -->
<g id="edge26" class="edge"><title>Canvas&#45;&gt;QGraphicsView</title>
<path fill="none" stroke="black" d="M941.601,-524.973C983.99,-512.085 1054,-482.412 1054,-427 1054,-427 1054,-427 1054,-164 1054,-136.542 1061.16,-105.902 1067.32,-84.6539"/>
<polygon fill="black" stroke="black" points="1070.68,-85.6175 1070.22,-75.0327 1063.98,-83.5954 1070.68,-85.6175"/>
<text text-anchor="middle" x="1077" y="-291.8" font-family="Times,serif" font-size="14.00">contains</text>
</g>
<!-- Canvas&#45;&gt;CelRefItem -->
<g id="edge27" class="edge"><title>Canvas&#45;&gt;CelRefItem</title>
<path fill="none" stroke="black" d="M880.662,-523.312C824.648,-504.815 702.088,-464.344 635.05,-442.207"/>
<polygon fill="black" stroke="black" points="635.775,-438.76 625.181,-438.948 633.58,-445.407 635.775,-438.76"/>
<text text-anchor="middle" x="821" y="-486.8" font-family="Times,serif" font-size="14.00">contains</text>
</g>
</g>
</svg>
