<?xml version="1.0" encoding="UTF-8" standalone="no"?>
<!DOCTYPE svg PUBLIC "-//W3C//DTD SVG 1.1//EN"
 "http://www.w3.org/Graphics/SVG/1.1/DTD/svg11.dtd">
<!-- Generated by graphviz version 2.38.0 (20140413.2041)
 -->
<!-- Title: %3 Pages: 1 -->
<svg width="3230pt" height="339pt"
 viewBox="0.00 0.00 3230.00 339.00" xmlns="http://www.w3.org/2000/svg" xmlns:xlink="http://www.w3.org/1999/xlink">
<g id="graph0" class="graph" transform="scale(1 1) rotate(0) translate(4 335)">
<title>%3</title>
<polygon fill="white" stroke="none" points="-4,4 -4,-335 3226,-335 3226,4 -4,4"/>
<text text-anchor="middle" x="1611" y="-7.8" font-family="Times,serif" font-size="14.00">Class Heiarchy</text>
<g id="clust1" class="cluster"><title>cluster_animation</title>
<polygon fill="none" stroke="black" points="8,-39 8,-186 424,-186 424,-39 8,-39"/>
<text text-anchor="middle" x="216" y="-170.8" font-family="Times,serif" font-size="14.00">Animation</text>
</g>
<g id="clust2" class="cluster"><title>cluster_widgets</title>
<polygon fill="none" stroke="black" points="432,-31 432,-323 3214,-323 3214,-31 432,-31"/>
<text text-anchor="middle" x="1823" y="-307.8" font-family="Times,serif" font-size="14.00">Unorganized Widgets</text>
</g>
<g id="clust4" class="cluster"><title>cluster_timeline_widgets</title>
<polygon fill="none" stroke="black" points="1064,-39 1064,-186 1556,-186 1556,-39 1064,-39"/>
<text text-anchor="middle" x="1310" y="-170.8" font-family="Times,serif" font-size="14.00">Timeline Widgets</text>
</g>
<g id="clust5" class="cluster"><title>cluster_color_chooser_widgets</title>
<polygon fill="none" stroke="black" points="2170,-111 2170,-261 2306,-261 2306,-111 2170,-111"/>
<text text-anchor="middle" x="2238" y="-245.8" font-family="Times,serif" font-size="14.00">Color Choosers</text>
</g>
<g id="clust6" class="cluster"><title>cluster_drawing_widgets</title>
<polygon fill="none" stroke="black" points="546,-103 546,-292 1056,-292 1056,-103 546,-103"/>
<text text-anchor="middle" x="801" y="-276.8" font-family="Times,serif" font-size="14.00">Drawing Widgets</text>
</g>
<g id="clust7" class="cluster"><title>cluster_drawing_tools</title>
<polygon fill="none" stroke="black" points="698,-111 698,-261 1048,-261 1048,-111 698,-111"/>
<text text-anchor="middle" x="873" y="-245.8" font-family="Times,serif" font-size="14.00">Drawing Tools</text>
</g>
<!-- QWidget_Tool -->
<g id="node1" class="node"><title>QWidget_Tool</title>
<ellipse fill="none" stroke="black" cx="2096" cy="-137" rx="64.189" ry="18"/>
<text text-anchor="middle" x="2096" y="-133.3" font-family="Times,serif" font-size="14.00">QWidget_Tool</text>
</g>
<!-- QWidget -->
<g id="node2" class="node"><title>QWidget</title>
<ellipse fill="none" stroke="black" cx="1504" cy="-65" rx="43.5923" ry="18"/>
<text text-anchor="middle" x="1504" y="-61.3" font-family="Times,serif" font-size="14.00">QWidget</text>
</g>
<!-- QWidget_Tool&#45;&gt;QWidget -->
<g id="edge1" class="edge"><title>QWidget_Tool&#45;&gt;QWidget</title>
<path fill="none" stroke="black" d="M2068.41,-120.711C2054.85,-113.985 2038.02,-106.768 2022,-103 1818.48,-55.1309 1757.26,-122.785 1552,-83 1549.33,-82.4817 1546.6,-81.8418 1543.87,-81.1172"/>
<polygon fill="black" stroke="black" points="1544.67,-77.7035 1534.09,-78.188 1542.67,-84.4094 1544.67,-77.7035"/>
</g>
<!-- Cel -->
<g id="node3" class="node"><title>Cel</title>
<ellipse fill="none" stroke="black" cx="344" cy="-137" rx="27" ry="18"/>
<text text-anchor="middle" x="344" y="-133.3" font-family="Times,serif" font-size="14.00">Cel</text>
</g>
<!-- QGraphicsObject -->
<g id="node4" class="node"><title>QGraphicsObject</title>
<ellipse fill="none" stroke="black" cx="344" cy="-65" rx="72.2875" ry="18"/>
<text text-anchor="middle" x="344" y="-61.3" font-family="Times,serif" font-size="14.00">QGraphicsObject</text>
</g>
<!-- Cel&#45;&gt;QGraphicsObject -->
<g id="edge2" class="edge"><title>Cel&#45;&gt;QGraphicsObject</title>
<path fill="none" stroke="black" d="M344,-118.697C344,-110.983 344,-101.712 344,-93.1124"/>
<polygon fill="black" stroke="black" points="347.5,-93.1043 344,-83.1043 340.5,-93.1044 347.5,-93.1043"/>
</g>
<!-- Frame -->
<g id="node5" class="node"><title>Frame</title>
<ellipse fill="none" stroke="black" cx="256" cy="-137" rx="33.5952" ry="18"/>
<text text-anchor="middle" x="256" y="-133.3" font-family="Times,serif" font-size="14.00">Frame</text>
</g>
<!-- QGraphicsScene -->
<g id="node6" class="node"><title>QGraphicsScene</title>
<ellipse fill="none" stroke="black" cx="184" cy="-65" rx="69.5877" ry="18"/>
<text text-anchor="middle" x="184" y="-61.3" font-family="Times,serif" font-size="14.00">QGraphicsScene</text>
</g>
<!-- Frame&#45;&gt;QGraphicsScene -->
<g id="edge3" class="edge"><title>Frame&#45;&gt;QGraphicsScene</title>
<path fill="none" stroke="black" d="M240.377,-120.811C231.058,-111.751 219.024,-100.051 208.468,-89.7881"/>
<polygon fill="black" stroke="black" points="210.713,-87.0892 201.103,-82.6278 205.833,-92.1082 210.713,-87.0892"/>
</g>
<!-- XSheet -->
<g id="node7" class="node"><title>XSheet</title>
<ellipse fill="none" stroke="black" cx="168" cy="-137" rx="36.2938" ry="18"/>
<text text-anchor="middle" x="168" y="-133.3" font-family="Times,serif" font-size="14.00">XSheet</text>
</g>
<!-- QObject -->
<g id="node8" class="node"><title>QObject</title>
<ellipse fill="none" stroke="black" cx="56" cy="-65" rx="40.0939" ry="18"/>
<text text-anchor="middle" x="56" y="-61.3" font-family="Times,serif" font-size="14.00">QObject</text>
</g>
<!-- XSheet&#45;&gt;QObject -->
<g id="edge4" class="edge"><title>XSheet&#45;&gt;QObject</title>
<path fill="none" stroke="black" d="M149.11,-121.314C141.203,-115.388 131.816,-108.634 123,-103 112.695,-96.4142 101.139,-89.7813 90.5642,-83.9865"/>
<polygon fill="black" stroke="black" points="92.0414,-80.8065 81.5797,-79.1321 88.7139,-86.965 92.0414,-80.8065"/>
</g>
<!-- Animation -->
<g id="node9" class="node"><title>Animation</title>
<ellipse fill="none" stroke="black" cx="65" cy="-137" rx="48.9926" ry="18"/>
<text text-anchor="middle" x="65" y="-133.3" font-family="Times,serif" font-size="14.00">Animation</text>
</g>
<!-- Animation&#45;&gt;QObject -->
<g id="edge5" class="edge"><title>Animation&#45;&gt;QObject</title>
<path fill="none" stroke="black" d="M62.7753,-118.697C61.7835,-110.983 60.5916,-101.712 59.4859,-93.1124"/>
<polygon fill="black" stroke="black" points="62.9459,-92.5763 58.1991,-83.1043 56.003,-93.469 62.9459,-92.5763"/>
</g>
<!-- BlitApp -->
<g id="node10" class="node"><title>BlitApp</title>
<ellipse fill="none" stroke="black" cx="2753" cy="-212" rx="38.9931" ry="18"/>
<text text-anchor="middle" x="2753" y="-208.3" font-family="Times,serif" font-size="14.00">BlitApp</text>
</g>
<!-- QMainWindow -->
<g id="node11" class="node"><title>QMainWindow</title>
<ellipse fill="none" stroke="black" cx="2659" cy="-137" rx="66.8882" ry="18"/>
<text text-anchor="middle" x="2659" y="-133.3" font-family="Times,serif" font-size="14.00">QMainWindow</text>
</g>
<!-- BlitApp&#45;&gt;QMainWindow -->
<g id="edge6" class="edge"><title>BlitApp&#45;&gt;QMainWindow</title>
<path fill="none" stroke="black" d="M2733.98,-196.227C2720.76,-185.963 2702.9,-172.094 2687.93,-160.467"/>
<polygon fill="black" stroke="black" points="2690,-157.644 2679.96,-154.275 2685.71,-163.173 2690,-157.644"/>
</g>
<!-- SpritesheetDialog -->
<g id="node12" class="node"><title>SpritesheetDialog</title>
<ellipse fill="none" stroke="black" cx="2387" cy="-212" rx="73.387" ry="18"/>
<text text-anchor="middle" x="2387" y="-208.3" font-family="Times,serif" font-size="14.00">SpritesheetDialog</text>
</g>
<!-- QDialog -->
<g id="node13" class="node"><title>QDialog</title>
<ellipse fill="none" stroke="black" cx="2460" cy="-137" rx="40.8928" ry="18"/>
<text text-anchor="middle" x="2460" y="-133.3" font-family="Times,serif" font-size="14.00">QDialog</text>
</g>
<!-- SpritesheetDialog&#45;&gt;QDialog -->
<g id="edge7" class="edge"><title>SpritesheetDialog&#45;&gt;QDialog</title>
<path fill="none" stroke="black" d="M2403.56,-194.435C2413.41,-184.592 2426.04,-171.958 2436.86,-161.14"/>
<polygon fill="black" stroke="black" points="2439.41,-163.544 2444,-153.998 2434.46,-158.594 2439.41,-163.544"/>
</g>
<!-- AnimationPropertiesDialog -->
<g id="node14" class="node"><title>AnimationPropertiesDialog</title>
<ellipse fill="none" stroke="black" cx="2587" cy="-212" rx="108.581" ry="18"/>
<text text-anchor="middle" x="2587" y="-208.3" font-family="Times,serif" font-size="14.00">AnimationPropertiesDialog</text>
</g>
<!-- AnimationPropertiesDialog&#45;&gt;QDialog -->
<g id="edge8" class="edge"><title>AnimationPropertiesDialog&#45;&gt;QDialog</title>
<path fill="none" stroke="black" d="M2558.5,-194.617C2539.09,-183.463 2513.34,-168.662 2493.04,-156.991"/>
<polygon fill="black" stroke="black" points="2494.55,-153.823 2484.14,-151.874 2491.06,-159.892 2494.55,-153.823"/>
</g>
<!-- TimelineWindow -->
<g id="node15" class="node"><title>TimelineWindow</title>
<ellipse fill="none" stroke="black" cx="1814" cy="-212" rx="73.387" ry="18"/>
<text text-anchor="middle" x="1814" y="-208.3" font-family="Times,serif" font-size="14.00">TimelineWindow</text>
</g>
<!-- TimelineWindow&#45;&gt;QWidget_Tool -->
<g id="edge9" class="edge"><title>TimelineWindow&#45;&gt;QWidget_Tool</title>
<path fill="none" stroke="black" d="M1866.06,-199.193C1876.27,-197.201 1886.94,-195.346 1897,-194 1924.59,-190.31 1995.58,-194.747 2022,-186 2038.81,-180.434 2055.54,-170.099 2068.83,-160.441"/>
<polygon fill="black" stroke="black" points="2071.16,-163.068 2077.03,-154.249 2066.94,-157.482 2071.16,-163.068"/>
</g>
<!-- ToolsWindow -->
<g id="node16" class="node"><title>ToolsWindow</title>
<ellipse fill="none" stroke="black" cx="2100" cy="-212" rx="61.99" ry="18"/>
<text text-anchor="middle" x="2100" y="-208.3" font-family="Times,serif" font-size="14.00">ToolsWindow</text>
</g>
<!-- ToolsWindow&#45;&gt;QWidget_Tool -->
<g id="edge10" class="edge"><title>ToolsWindow&#45;&gt;QWidget_Tool</title>
<path fill="none" stroke="black" d="M2099.05,-193.7C2098.59,-185.245 2098.02,-174.869 2097.5,-165.373"/>
<polygon fill="black" stroke="black" points="2100.98,-164.969 2096.94,-155.176 2093.99,-165.352 2100.98,-164.969"/>
</g>
<!-- CelsWindow -->
<g id="node17" class="node"><title>CelsWindow</title>
<ellipse fill="none" stroke="black" cx="1963" cy="-212" rx="57.3905" ry="18"/>
<text text-anchor="middle" x="1963" y="-208.3" font-family="Times,serif" font-size="14.00">CelsWindow</text>
</g>
<!-- CelsWindow&#45;&gt;QWidget_Tool -->
<g id="edge11" class="edge"><title>CelsWindow&#45;&gt;QWidget_Tool</title>
<path fill="none" stroke="black" d="M1997.48,-197.584C2005.65,-194.08 2014.24,-190.121 2022,-186 2036.62,-178.24 2052.08,-168.478 2065.07,-159.788"/>
<polygon fill="black" stroke="black" points="2067.32,-162.492 2073.62,-153.98 2063.38,-156.7 2067.32,-162.492"/>
</g>
<!-- CelWidget -->
<g id="node18" class="node"><title>CelWidget</title>
<ellipse fill="none" stroke="black" cx="489" cy="-212" rx="49.2915" ry="18"/>
<text text-anchor="middle" x="489" y="-208.3" font-family="Times,serif" font-size="14.00">CelWidget</text>
</g>
<!-- CelWidget&#45;&gt;QGraphicsObject -->
<g id="edge12" class="edge"><title>CelWidget&#45;&gt;QGraphicsObject</title>
<path fill="none" stroke="black" d="M472.928,-194.928C447.37,-169.37 397.326,-119.326 367.664,-89.6639"/>
<polygon fill="black" stroke="black" points="370.135,-87.1854 360.589,-82.5892 365.185,-92.1352 370.135,-87.1854"/>
</g>
<!-- ColorFrame -->
<g id="node19" class="node"><title>ColorFrame</title>
<ellipse fill="none" stroke="black" cx="3005" cy="-137" rx="53.8905" ry="18"/>
<text text-anchor="middle" x="3005" y="-133.3" font-family="Times,serif" font-size="14.00">ColorFrame</text>
</g>
<!-- QFrame -->
<g id="node20" class="node"><title>QFrame</title>
<ellipse fill="none" stroke="black" cx="3005" cy="-65" rx="40.0939" ry="18"/>
<text text-anchor="middle" x="3005" y="-61.3" font-family="Times,serif" font-size="14.00">QFrame</text>
</g>
<!-- ColorFrame&#45;&gt;QFrame -->
<g id="edge13" class="edge"><title>ColorFrame&#45;&gt;QFrame</title>
<path fill="none" stroke="black" d="M3005,-118.697C3005,-110.983 3005,-101.712 3005,-93.1124"/>
<polygon fill="black" stroke="black" points="3008.5,-93.1043 3005,-83.1043 3001.5,-93.1044 3008.5,-93.1043"/>
</g>
<!-- SelfChangingColorFrame -->
<g id="node21" class="node"><title>SelfChangingColorFrame</title>
<ellipse fill="none" stroke="black" cx="2912" cy="-212" rx="102.082" ry="18"/>
<text text-anchor="middle" x="2912" y="-208.3" font-family="Times,serif" font-size="14.00">SelfChangingColorFrame</text>
</g>
<!-- SelfChangingColorFrame&#45;&gt;ColorFrame -->
<g id="edge14" class="edge"><title>SelfChangingColorFrame&#45;&gt;ColorFrame</title>
<path fill="none" stroke="black" d="M2933.57,-194.069C2946.37,-184.023 2962.74,-171.17 2976.58,-160.305"/>
<polygon fill="black" stroke="black" points="2979.12,-162.768 2984.82,-153.84 2974.79,-157.261 2979.12,-162.768"/>
</g>
<!-- ClickableColorFrame -->
<g id="node22" class="node"><title>ClickableColorFrame</title>
<ellipse fill="none" stroke="black" cx="3119" cy="-212" rx="87.1846" ry="18"/>
<text text-anchor="middle" x="3119" y="-208.3" font-family="Times,serif" font-size="14.00">ClickableColorFrame</text>
</g>
<!-- ClickableColorFrame&#45;&gt;ColorFrame -->
<g id="edge15" class="edge"><title>ClickableColorFrame&#45;&gt;ColorFrame</title>
<path fill="none" stroke="black" d="M3093.42,-194.617C3076.98,-184.093 3055.48,-170.324 3037.79,-158.999"/>
<polygon fill="black" stroke="black" points="3039.25,-155.775 3028.94,-153.33 3035.47,-161.67 3039.25,-155.775"/>
</g>
<!-- ColorPalette -->
<g id="node23" class="node"><title>ColorPalette</title>
<ellipse fill="none" stroke="black" cx="1860" cy="-137" rx="54.6905" ry="18"/>
<text text-anchor="middle" x="1860" y="-133.3" font-family="Times,serif" font-size="14.00">ColorPalette</text>
</g>
<!-- ColorPalette&#45;&gt;QWidget -->
<g id="edge16" class="edge"><title>ColorPalette&#45;&gt;QWidget</title>
<path fill="none" stroke="black" d="M1836.43,-120.762C1824.98,-114.135 1810.76,-106.985 1797,-103 1692.06,-72.5997 1658.83,-105.872 1552,-83 1549.34,-82.4297 1546.62,-81.7504 1543.9,-80.9967"/>
<polygon fill="black" stroke="black" points="1544.72,-77.5864 1534.13,-78.0026 1542.66,-84.2791 1544.72,-77.5864"/>
</g>
<!-- EditorContainer -->
<g id="node24" class="node"><title>EditorContainer</title>
<ellipse fill="none" stroke="black" cx="2812" cy="-137" rx="67.6881" ry="18"/>
<text text-anchor="middle" x="2812" y="-133.3" font-family="Times,serif" font-size="14.00">EditorContainer</text>
</g>
<!-- EditorContainer&#45;&gt;QWidget -->
<g id="edge17" class="edge"><title>EditorContainer&#45;&gt;QWidget</title>
<path fill="none" stroke="black" d="M2783.27,-120.529C2769.15,-113.761 2751.64,-106.562 2735,-103 2477.9,-47.9594 1810.74,-129.721 1552,-83 1549.19,-82.4919 1546.32,-81.8408 1543.45,-81.091"/>
<polygon fill="black" stroke="black" points="1544.39,-77.7193 1533.81,-78.2256 1542.4,-84.4293 1544.39,-77.7193"/>
</g>
<!-- MenuBar -->
<g id="node25" class="node"><title>MenuBar</title>
<ellipse fill="none" stroke="black" cx="1678" cy="-212" rx="44.393" ry="18"/>
<text text-anchor="middle" x="1678" y="-208.3" font-family="Times,serif" font-size="14.00">MenuBar</text>
</g>
<!-- QMenuBar -->
<g id="node26" class="node"><title>QMenuBar</title>
<ellipse fill="none" stroke="black" cx="1737" cy="-137" rx="50.8918" ry="18"/>
<text text-anchor="middle" x="1737" y="-133.3" font-family="Times,serif" font-size="14.00">QMenuBar</text>
</g>
<!-- MenuBar&#45;&gt;QMenuBar -->
<g id="edge18" class="edge"><title>MenuBar&#45;&gt;QMenuBar</title>
<path fill="none" stroke="black" d="M1691.09,-194.799C1698.83,-185.226 1708.78,-172.921 1717.43,-162.213"/>
<polygon fill="black" stroke="black" points="1720.17,-164.386 1723.74,-154.408 1714.73,-159.986 1720.17,-164.386"/>
</g>
<!-- StatusBar -->
<g id="node27" class="node"><title>StatusBar</title>
<ellipse fill="none" stroke="black" cx="1571" cy="-212" rx="44.6926" ry="18"/>
<text text-anchor="middle" x="1571" y="-208.3" font-family="Times,serif" font-size="14.00">StatusBar</text>
</g>
<!-- QStatusBar -->
<g id="node28" class="node"><title>QStatusBar</title>
<ellipse fill="none" stroke="black" cx="1617" cy="-137" rx="51.1914" ry="18"/>
<text text-anchor="middle" x="1617" y="-133.3" font-family="Times,serif" font-size="14.00">QStatusBar</text>
</g>
<!-- StatusBar&#45;&gt;QStatusBar -->
<g id="edge19" class="edge"><title>StatusBar&#45;&gt;QStatusBar</title>
<path fill="none" stroke="black" d="M1581.44,-194.435C1587.22,-185.26 1594.53,-173.661 1601.02,-163.367"/>
<polygon fill="black" stroke="black" points="1604.07,-165.078 1606.44,-154.752 1598.15,-161.346 1604.07,-165.078"/>
</g>
<!-- Toolbox -->
<g id="node29" class="node"><title>Toolbox</title>
<ellipse fill="none" stroke="black" cx="1973" cy="-137" rx="40.0939" ry="18"/>
<text text-anchor="middle" x="1973" y="-133.3" font-family="Times,serif" font-size="14.00">Toolbox</text>
</g>
<!-- Toolbox&#45;&gt;QWidget -->
<g id="edge20" class="edge"><title>Toolbox&#45;&gt;QWidget</title>
<path fill="none" stroke="black" d="M1955.19,-120.577C1946.4,-113.909 1935.28,-106.779 1924,-103 1845.5,-76.7066 1633.18,-99.2074 1552,-83 1549.33,-82.4667 1546.61,-81.8155 1543.88,-81.0825"/>
<polygon fill="black" stroke="black" points="1544.69,-77.6698 1534.1,-78.1347 1542.67,-84.3719 1544.69,-77.6698"/>
</g>
<!-- Timeline -->
<g id="node30" class="node"><title>Timeline</title>
<ellipse fill="none" stroke="black" cx="1505" cy="-137" rx="42.7926" ry="18"/>
<text text-anchor="middle" x="1505" y="-133.3" font-family="Times,serif" font-size="14.00">Timeline</text>
</g>
<!-- Timeline&#45;&gt;QWidget -->
<g id="edge21" class="edge"><title>Timeline&#45;&gt;QWidget</title>
<path fill="none" stroke="black" d="M1504.75,-118.697C1504.64,-110.983 1504.51,-101.712 1504.39,-93.1124"/>
<polygon fill="black" stroke="black" points="1507.89,-93.0533 1504.24,-83.1043 1500.89,-93.1533 1507.89,-93.0533"/>
</g>
<!-- Cursor -->
<g id="node31" class="node"><title>Cursor</title>
<ellipse fill="none" stroke="black" cx="1258" cy="-137" rx="34.394" ry="18"/>
<text text-anchor="middle" x="1258" y="-133.3" font-family="Times,serif" font-size="14.00">Cursor</text>
</g>
<!-- Cursor&#45;&gt;QGraphicsObject -->
<g id="edge22" class="edge"><title>Cursor&#45;&gt;QGraphicsObject</title>
<path fill="none" stroke="black" d="M1242.69,-120.531C1235.05,-113.853 1225.26,-106.728 1215,-103 1142.21,-76.5505 628.973,-68.7429 426.168,-66.6757"/>
<polygon fill="black" stroke="black" points="425.909,-63.173 415.875,-66.573 425.839,-70.1727 425.909,-63.173"/>
</g>
<!-- Ruler -->
<g id="node32" class="node"><title>Ruler</title>
<ellipse fill="none" stroke="black" cx="1175" cy="-137" rx="30.5947" ry="18"/>
<text text-anchor="middle" x="1175" y="-133.3" font-family="Times,serif" font-size="14.00">Ruler</text>
</g>
<!-- Ruler&#45;&gt;QGraphicsObject -->
<g id="edge23" class="edge"><title>Ruler&#45;&gt;QGraphicsObject</title>
<path fill="none" stroke="black" d="M1161.3,-120.904C1154.18,-114.134 1144.91,-106.824 1135,-103 1070.22,-78.0025 615.035,-69.4162 426,-66.9069"/>
<polygon fill="black" stroke="black" points="425.885,-63.4052 415.84,-66.7745 425.794,-70.4046 425.885,-63.4052"/>
</g>
<!-- Tick -->
<g id="node33" class="node"><title>Tick</title>
<ellipse fill="none" stroke="black" cx="1099" cy="-137" rx="27" ry="18"/>
<text text-anchor="middle" x="1099" y="-133.3" font-family="Times,serif" font-size="14.00">Tick</text>
</g>
<!-- Tick&#45;&gt;QGraphicsObject -->
<g id="edge24" class="edge"><title>Tick&#45;&gt;QGraphicsObject</title>
<path fill="none" stroke="black" d="M1083.72,-121.943C1075.08,-114.9 1063.69,-107.032 1052,-103 994.174,-83.0521 599.238,-71.7736 425.609,-67.7289"/>
<polygon fill="black" stroke="black" points="425.578,-64.2274 415.5,-67.4958 425.417,-71.2255 425.578,-64.2274"/>
</g>
<!-- TriangleMarker -->
<g id="node34" class="node"><title>TriangleMarker</title>
<ellipse fill="none" stroke="black" cx="1377" cy="-137" rx="66.8882" ry="18"/>
<text text-anchor="middle" x="1377" y="-133.3" font-family="Times,serif" font-size="14.00">TriangleMarker</text>
</g>
<!-- QGraphicsPolygonItem -->
<g id="node35" class="node"><title>QGraphicsPolygonItem</title>
<ellipse fill="none" stroke="black" cx="1348" cy="-65" rx="94.7833" ry="18"/>
<text text-anchor="middle" x="1348" y="-61.3" font-family="Times,serif" font-size="14.00">QGraphicsPolygonItem</text>
</g>
<!-- TriangleMarker&#45;&gt;QGraphicsPolygonItem -->
<g id="edge25" class="edge"><title>TriangleMarker&#45;&gt;QGraphicsPolygonItem</title>
<path fill="none" stroke="black" d="M1369.98,-119.055C1366.72,-111.176 1362.76,-101.617 1359.1,-92.794"/>
<polygon fill="black" stroke="black" points="1362.22,-91.1743 1355.16,-83.2753 1355.75,-93.8535 1362.22,-91.1743"/>
</g>
<!-- ColorChooser -->
<g id="node36" class="node"><title>ColorChooser</title>
<ellipse fill="none" stroke="black" cx="2238" cy="-137" rx="59.5901" ry="18"/>
<text text-anchor="middle" x="2238" y="-133.3" font-family="Times,serif" font-size="14.00">ColorChooser</text>
</g>
<!-- ColorChooser&#45;&gt;QWidget -->
<g id="edge26" class="edge"><title>ColorChooser&#45;&gt;QWidget</title>
<path fill="none" stroke="black" d="M2214.11,-120.457C2202.49,-113.763 2188.04,-106.645 2174,-103 2040.15,-68.2357 1687.9,-108.61 1552,-83 1549.19,-82.4705 1546.32,-81.8034 1543.46,-81.042"/>
<polygon fill="black" stroke="black" points="1544.41,-77.6717 1533.82,-78.1525 1542.4,-84.3769 1544.41,-77.6717"/>
</g>
<!-- RGBSlider -->
<g id="node37" class="node"><title>RGBSlider</title>
<ellipse fill="none" stroke="black" cx="2238" cy="-212" rx="50.0912" ry="18"/>
<text text-anchor="middle" x="2238" y="-208.3" font-family="Times,serif" font-size="14.00">RGBSlider</text>
</g>
<!-- RGBSlider&#45;&gt;ColorChooser -->
<g id="edge27" class="edge"><title>RGBSlider&#45;&gt;ColorChooser</title>
<path fill="none" stroke="black" d="M2238,-193.7C2238,-185.245 2238,-174.869 2238,-165.373"/>
<polygon fill="black" stroke="black" points="2241.5,-165.176 2238,-155.176 2234.5,-165.176 2241.5,-165.176"/>
</g>
<!-- Canvas -->
<g id="node38" class="node"><title>Canvas</title>
<ellipse fill="none" stroke="black" cx="622" cy="-212" rx="36.2938" ry="18"/>
<text text-anchor="middle" x="622" y="-208.3" font-family="Times,serif" font-size="14.00">Canvas</text>
</g>
<!-- QGraphicsView -->
<g id="node39" class="node"><title>QGraphicsView</title>
<ellipse fill="none" stroke="black" cx="622" cy="-137" rx="67.6881" ry="18"/>
<text text-anchor="middle" x="622" y="-133.3" font-family="Times,serif" font-size="14.00">QGraphicsView</text>
</g>
<!-- Canvas&#45;&gt;QGraphicsView -->
<g id="edge28" class="edge"><title>Canvas&#45;&gt;QGraphicsView</title>
<path fill="none" stroke="black" d="M622,-193.7C622,-185.245 622,-174.869 622,-165.373"/>
<polygon fill="black" stroke="black" points="625.5,-165.176 622,-155.176 618.5,-165.176 625.5,-165.176"/>
</g>
<!-- Tool -->
<g id="node40" class="node"><title>Tool</title>
<ellipse fill="none" stroke="black" cx="853" cy="-137" rx="27.0966" ry="18"/>
<text text-anchor="middle" x="853" y="-133.3" font-family="Times,serif" font-size="14.00">Tool</text>
</g>
<!-- Tool&#45;&gt;QGraphicsObject -->
<g id="edge29" class="edge"><title>Tool&#45;&gt;QGraphicsObject</title>
<path fill="none" stroke="black" d="M842.426,-120.379C837.112,-113.841 830.081,-106.873 822,-103 754.264,-70.5345 544.438,-65.4559 426.549,-65.2845"/>
<polygon fill="black" stroke="black" points="426.482,-61.7846 416.481,-65.2815 426.48,-68.7846 426.482,-61.7846"/>
</g>
<!-- Pen -->
<g id="node41" class="node"><title>Pen</title>
<ellipse fill="none" stroke="black" cx="1013" cy="-212" rx="27" ry="18"/>
<text text-anchor="middle" x="1013" y="-208.3" font-family="Times,serif" font-size="14.00">Pen</text>
</g>
<!-- Pen&#45;&gt;Tool -->
<g id="edge30" class="edge"><title>Pen&#45;&gt;Tool</title>
<path fill="none" stroke="black" d="M991.708,-200.872C986.879,-198.596 981.769,-196.203 977,-194 945.574,-179.485 909.493,-163.237 884.385,-151.997"/>
<polygon fill="black" stroke="black" points="885.56,-148.688 875.002,-147.801 882.702,-155.079 885.56,-148.688"/>
</g>
<!-- Brush -->
<g id="node42" class="node"><title>Brush</title>
<ellipse fill="none" stroke="black" cx="936" cy="-212" rx="31.6951" ry="18"/>
<text text-anchor="middle" x="936" y="-208.3" font-family="Times,serif" font-size="14.00">Brush</text>
</g>
<!-- Brush&#45;&gt;Tool -->
<g id="edge31" class="edge"><title>Brush&#45;&gt;Tool</title>
<path fill="none" stroke="black" d="M919.204,-196.227C906.849,-185.361 889.903,-170.456 876.248,-158.447"/>
<polygon fill="black" stroke="black" points="878.469,-155.739 868.648,-151.763 873.846,-160.995 878.469,-155.739"/>
</g>
<!-- Eraser -->
<g id="node43" class="node"><title>Eraser</title>
<ellipse fill="none" stroke="black" cx="853" cy="-212" rx="33.2948" ry="18"/>
<text text-anchor="middle" x="853" y="-208.3" font-family="Times,serif" font-size="14.00">Eraser</text>
</g>
<!-- Eraser&#45;&gt;Tool -->
<g id="edge32" class="edge"><title>Eraser&#45;&gt;Tool</title>
<path fill="none" stroke="black" d="M853,-193.7C853,-185.245 853,-174.869 853,-165.373"/>
<polygon fill="black" stroke="black" points="856.5,-165.176 853,-155.176 849.5,-165.176 856.5,-165.176"/>
</g>
<!-- MoveTool -->
<g id="node44" class="node"><title>MoveTool</title>
<ellipse fill="none" stroke="black" cx="754" cy="-212" rx="48.1917" ry="18"/>
<text text-anchor="middle" x="754" y="-208.3" font-family="Times,serif" font-size="14.00">MoveTool</text>
</g>
<!-- MoveTool&#45;&gt;Tool -->
<g id="edge33" class="edge"><title>MoveTool&#45;&gt;Tool</title>
<path fill="none" stroke="black" d="M793.314,-201.379C803.351,-197.68 813.652,-192.68 822,-186 829.541,-179.966 835.83,-171.579 840.729,-163.501"/>
<polygon fill="black" stroke="black" points="843.848,-165.094 845.661,-154.655 837.734,-161.685 843.848,-165.094"/>
</g>
</g>
</svg>
