<?xml version="1.0" encoding="UTF-8" standalone="no"?>
<!DOCTYPE svg PUBLIC "-//W3C//DTD SVG 1.1//EN"
 "http://www.w3.org/Graphics/SVG/1.1/DTD/svg11.dtd">
<!-- Generated by graphviz version 2.38.0 (20140413.2041)
 -->
<!-- Title: %3 Pages: 1 -->
<svg width="2222pt" height="521pt"
 viewBox="0.00 0.00 2222.00 521.37" xmlns="http://www.w3.org/2000/svg" xmlns:xlink="http://www.w3.org/1999/xlink">
<g id="graph0" class="graph" transform="scale(1 1) rotate(0) translate(4 517.371)">
<title>%3</title>
<polygon fill="white" stroke="none" points="-4,4 -4,-517.371 2218,-517.371 2218,4 -4,4"/>
<text text-anchor="middle" x="1107" y="-7.8" font-family="Times,serif" font-size="14.00">Uses</text>
<g id="clust1" class="cluster"><title>cluster_animation</title>
<polygon fill="none" stroke="black" points="8,-31 8,-499 389,-499 389,-31 8,-31"/>
<text text-anchor="middle" x="198.5" y="-483.8" font-family="Times,serif" font-size="14.00">Animation</text>
</g>
<g id="clust2" class="cluster"><title>cluster_unorganized_widgets</title>
<polygon fill="none" stroke="black" points="397,-116 397,-499 1738,-499 1738,-116 397,-116"/>
<text text-anchor="middle" x="1067.5" y="-483.8" font-family="Times,serif" font-size="14.00">Unorganized Widgets</text>
</g>
<g id="clust10" class="cluster"><title>cluster_color_choosers</title>
<polygon fill="none" stroke="black" points="1068,-330 1068,-405 1322,-405 1322,-330 1068,-330"/>
<text text-anchor="middle" x="1195" y="-389.8" font-family="Times,serif" font-size="14.00">Color Choosers</text>
</g>
<g id="clust11" class="cluster"><title>cluster_timeline_widgets</title>
<polygon fill="none" stroke="black" points="617,-132 617,-405 952,-405 952,-132 617,-132"/>
<text text-anchor="middle" x="784.5" y="-389.8" font-family="Times,serif" font-size="14.00">Timeline Widgets</text>
</g>
<g id="clust15" class="cluster"><title>cluster_drawing_widgets</title>
<polygon fill="none" stroke="black" points="960,-124 960,-311 1394,-311 1394,-124 960,-124"/>
<text text-anchor="middle" x="1177" y="-295.8" font-family="Times,serif" font-size="14.00">Drawing Widgets</text>
</g>
<g id="clust17" class="cluster"><title>cluster_drawing_tools</title>
<polygon fill="none" stroke="black" points="968,-132 968,-280 1386,-280 1386,-132 968,-132"/>
<text text-anchor="middle" x="1177" y="-264.8" font-family="Times,serif" font-size="14.00">Drawing Tools</text>
</g>
<!-- Animation -->
<g id="node1" class="node"><title>Animation</title>
<ellipse fill="none" stroke="black" cx="317" cy="-450" rx="48.9926" ry="18"/>
<text text-anchor="middle" x="317" y="-446.3" font-family="Times,serif" font-size="14.00">Animation</text>
</g>
<!-- XSheet -->
<g id="node2" class="node"><title>XSheet</title>
<ellipse fill="none" stroke="black" cx="275" cy="-356" rx="36.2938" ry="18"/>
<text text-anchor="middle" x="275" y="-352.3" font-family="Times,serif" font-size="14.00">XSheet</text>
</g>
<!-- Animation&#45;&gt;XSheet -->
<g id="edge1" class="edge"><title>Animation&#45;&gt;XSheet</title>
<path fill="none" stroke="black" d="M309.297,-432.126C303.021,-418.379 294.054,-398.737 286.863,-382.985"/>
<polygon fill="black" stroke="black" points="289.992,-381.411 282.655,-373.767 283.624,-384.318 289.992,-381.411"/>
</g>
<!-- Frame -->
<g id="node3" class="node"><title>Frame</title>
<ellipse fill="none" stroke="black" cx="347" cy="-231" rx="33.5952" ry="18"/>
<text text-anchor="middle" x="347" y="-227.3" font-family="Times,serif" font-size="14.00">Frame</text>
</g>
<!-- XSheet&#45;&gt;Frame -->
<g id="edge2" class="edge"><title>XSheet&#45;&gt;Frame</title>
<path fill="none" stroke="black" d="M284.71,-338.412C296.963,-317.479 318.151,-281.284 332.369,-256.995"/>
<polygon fill="black" stroke="black" points="335.412,-258.724 337.444,-248.326 329.371,-255.188 335.412,-258.724"/>
</g>
<!-- Cel -->
<g id="node4" class="node"><title>Cel</title>
<ellipse fill="none" stroke="black" cx="354" cy="-158" rx="27" ry="18"/>
<text text-anchor="middle" x="354" y="-154.3" font-family="Times,serif" font-size="14.00">Cel</text>
</g>
<!-- Frame&#45;&gt;Cel -->
<g id="edge3" class="edge"><title>Frame&#45;&gt;Cel</title>
<path fill="none" stroke="black" d="M348.695,-212.813C349.486,-204.789 350.446,-195.047 351.331,-186.069"/>
<polygon fill="black" stroke="black" points="354.823,-186.324 352.321,-176.029 347.857,-185.637 354.823,-186.324"/>
</g>
<!-- BlitApp -->
<g id="node5" class="node"><title>BlitApp</title>
<ellipse fill="none" stroke="black" cx="342" cy="-57" rx="38.9931" ry="18"/>
<text text-anchor="middle" x="342" y="-53.3" font-family="Times,serif" font-size="14.00">BlitApp</text>
</g>
<!-- Frame&#45;&gt;BlitApp -->
<g id="edge4" class="edge"><title>Frame&#45;&gt;BlitApp</title>
<path fill="none" stroke="black" d="M313.764,-227.652C253.288,-222.614 129.076,-208.478 103,-176 86.3049,-155.206 86.5166,-136.962 103,-116 126.313,-86.3526 231.27,-70.0028 294.083,-62.7164"/>
<polygon fill="black" stroke="black" points="294.615,-66.1788 304.161,-61.583 293.832,-59.2227 294.615,-66.1788"/>
<text text-anchor="middle" x="210.5" y="-154.3" font-family="Times,serif" font-size="14.00">only on image rendering for frame size</text>
</g>
<!-- Cel&#45;&gt;BlitApp -->
<g id="edge6" class="edge"><title>Cel&#45;&gt;BlitApp</title>
<path fill="none" stroke="black" d="M351.91,-139.756C350.086,-124.708 347.408,-102.616 345.296,-85.1898"/>
<polygon fill="black" stroke="black" points="348.744,-84.553 344.066,-75.0469 341.795,-85.3954 348.744,-84.553"/>
<text text-anchor="middle" x="405.5" y="-96.8" font-family="Times,serif" font-size="14.00">only on new creation</text>
</g>
<!-- QImage -->
<g id="node6" class="node"><title>QImage</title>
<ellipse fill="none" stroke="black" cx="87" cy="-57" rx="39.7935" ry="18"/>
<text text-anchor="middle" x="87" y="-53.3" font-family="Times,serif" font-size="14.00">QImage</text>
</g>
<!-- Cel&#45;&gt;QImage -->
<g id="edge5" class="edge"><title>Cel&#45;&gt;QImage</title>
<path fill="none" stroke="black" d="M342.242,-141.692C334.763,-132.955 324.368,-122.483 313,-116 257.107,-84.1232 183.565,-69.4745 135.795,-62.9469"/>
<polygon fill="black" stroke="black" points="136.08,-59.4547 125.713,-61.6376 135.179,-66.3964 136.08,-59.4547"/>
</g>
<!-- BlitApp&#45;&gt;Animation -->
<g id="edge7" class="edge"><title>BlitApp&#45;&gt;Animation</title>
<path fill="none" stroke="black" d="M303.342,-59.5652C238.291,-62.7599 110.203,-71.6242 71,-93 38.3248,-110.816 17,-119.783 17,-157 17,-357 17,-357 17,-357 17,-407.372 173.548,-432.977 260.471,-443.312"/>
<polygon fill="black" stroke="black" points="260.118,-446.794 270.454,-444.468 260.923,-439.841 260.118,-446.794"/>
</g>
<!-- BlitApp&#45;&gt;XSheet -->
<g id="edge8" class="edge"><title>BlitApp&#45;&gt;XSheet</title>
<path fill="none" stroke="black" d="M303.144,-59.1276C240.269,-61.6289 119.754,-69.4345 85,-93 75.2814,-99.5898 74.9872,-104.644 72,-116 65.216,-141.789 61.0273,-151.695 72,-176 106.965,-253.447 193.834,-310.801 241.826,-337.801"/>
<polygon fill="black" stroke="black" points="240.149,-340.873 250.596,-342.64 243.531,-334.744 240.149,-340.873"/>
</g>
<!-- BlitApp&#45;&gt;Frame -->
<g id="edge9" class="edge"><title>BlitApp&#45;&gt;Frame</title>
<path fill="none" stroke="black" d="M303.389,-60.6392C245.916,-65.0898 141.078,-75.3714 108,-93 74.4198,-110.896 66.5169,-143.932 87,-176 109.909,-211.866 235.002,-224.085 302.978,-228.112"/>
<polygon fill="black" stroke="black" points="303.193,-231.629 313.372,-228.69 303.582,-224.64 303.193,-231.629"/>
</g>
<!-- BlitApp&#45;&gt;Cel -->
<g id="edge10" class="edge"><title>BlitApp&#45;&gt;Cel</title>
<path fill="none" stroke="black" d="M341.495,-75.184C341.423,-84.8574 341.686,-97.1395 343,-108 343.873,-115.211 345.342,-122.918 346.928,-130.035"/>
<polygon fill="black" stroke="black" points="343.558,-130.994 349.278,-139.913 350.368,-129.374 343.558,-130.994"/>
</g>
<!-- Canvas -->
<g id="node7" class="node"><title>Canvas</title>
<ellipse fill="none" stroke="black" cx="1012" cy="-158" rx="36.2938" ry="18"/>
<text text-anchor="middle" x="1012" y="-154.3" font-family="Times,serif" font-size="14.00">Canvas</text>
</g>
<!-- BlitApp&#45;&gt;Canvas -->
<g id="edge11" class="edge"><title>BlitApp&#45;&gt;Canvas</title>
<path fill="none" stroke="black" d="M380.777,-58.9789C498.453,-62.3681 849.903,-75.6914 956,-116 967.384,-120.325 978.507,-127.625 987.801,-134.877"/>
<polygon fill="black" stroke="black" points="985.83,-137.788 995.777,-141.437 990.277,-132.381 985.83,-137.788"/>
</g>
<!-- EditorContainer -->
<g id="node8" class="node"><title>EditorContainer</title>
<ellipse fill="none" stroke="black" cx="1470" cy="-231" rx="67.6881" ry="18"/>
<text text-anchor="middle" x="1470" y="-227.3" font-family="Times,serif" font-size="14.00">EditorContainer</text>
</g>
<!-- BlitApp&#45;&gt;EditorContainer -->
<g id="edge12" class="edge"><title>BlitApp&#45;&gt;EditorContainer</title>
<path fill="none" stroke="black" d="M381.236,-58.3004C597.103,-60.0439 1631.22,-69.6087 1654,-93 1685.63,-125.48 1683.28,-160.388 1654,-195 1638.43,-213.41 1570.67,-208.399 1547,-213 1541.32,-214.104 1535.41,-215.308 1529.51,-216.547"/>
<polygon fill="black" stroke="black" points="1528.68,-213.146 1519.63,-218.656 1530.14,-219.992 1528.68,-213.146"/>
</g>
<!-- StatusBar -->
<g id="node9" class="node"><title>StatusBar</title>
<ellipse fill="none" stroke="black" cx="1344" cy="-450" rx="44.6926" ry="18"/>
<text text-anchor="middle" x="1344" y="-446.3" font-family="Times,serif" font-size="14.00">StatusBar</text>
</g>
<!-- BlitApp&#45;&gt;StatusBar -->
<g id="edge13" class="edge"><title>BlitApp&#45;&gt;StatusBar</title>
<path fill="none" stroke="black" d="M381.126,-57.8419C626.555,-56.9714 1945.87,-54.1177 2021,-93 2051,-108.526 2062,-123.219 2062,-157 2062,-357 2062,-357 2062,-357 2062,-390.119 2046.02,-405.549 2014,-414 1881.37,-449.003 1532.2,-408.824 1397,-432 1393.31,-432.633 1389.52,-433.465 1385.74,-434.42"/>
<polygon fill="black" stroke="black" points="1384.56,-431.117 1375.87,-437.186 1386.44,-437.858 1384.56,-431.117"/>
</g>
<!-- MenuBar -->
<g id="node10" class="node"><title>MenuBar</title>
<ellipse fill="none" stroke="black" cx="1686" cy="-450" rx="44.393" ry="18"/>
<text text-anchor="middle" x="1686" y="-446.3" font-family="Times,serif" font-size="14.00">MenuBar</text>
</g>
<!-- BlitApp&#45;&gt;MenuBar -->
<g id="edge14" class="edge"><title>BlitApp&#45;&gt;MenuBar</title>
<path fill="none" stroke="black" d="M381.297,-58.2789C633.82,-60.1339 2020.57,-71.283 2107,-93 2147.57,-103.193 2176,-115.173 2176,-157 2176,-357 2176,-357 2176,-357 2176,-385.347 2159.04,-391.705 2134,-405 2067.1,-440.525 1844.65,-447.478 1740.58,-448.761"/>
<polygon fill="black" stroke="black" points="1740.24,-445.264 1730.28,-448.874 1740.32,-452.264 1740.24,-445.264"/>
</g>
<!-- TimelineWindow -->
<g id="node11" class="node"><title>TimelineWindow</title>
<ellipse fill="none" stroke="black" cx="676" cy="-450" rx="73.387" ry="18"/>
<text text-anchor="middle" x="676" y="-446.3" font-family="Times,serif" font-size="14.00">TimelineWindow</text>
</g>
<!-- BlitApp&#45;&gt;TimelineWindow -->
<g id="edge15" class="edge"><title>BlitApp&#45;&gt;TimelineWindow</title>
<path fill="none" stroke="black" d="M380.963,-58.108C592.352,-58.8103 1597.02,-63.6781 1732,-93 1757.49,-98.5378 1768.1,-97.0271 1786,-116 1811.28,-142.789 1807.68,-157.713 1814,-194 1833.26,-304.634 1780.8,-367.359 1675,-405 1602.19,-430.903 1057.19,-428.342 980,-432 904.1,-435.596 817.587,-440.514 756.311,-444.135"/>
<polygon fill="black" stroke="black" points="756.094,-440.642 746.318,-444.727 756.508,-447.629 756.094,-440.642"/>
</g>
<!-- ToolsWindow -->
<g id="node12" class="node"><title>ToolsWindow</title>
<ellipse fill="none" stroke="black" cx="1219" cy="-450" rx="61.99" ry="18"/>
<text text-anchor="middle" x="1219" y="-446.3" font-family="Times,serif" font-size="14.00">ToolsWindow</text>
</g>
<!-- BlitApp&#45;&gt;ToolsWindow -->
<g id="edge16" class="edge"><title>BlitApp&#45;&gt;ToolsWindow</title>
<path fill="none" stroke="black" d="M381.283,-58.2239C629.04,-59.709 1965.9,-68.8342 2000,-93 2024.79,-110.566 2024,-126.621 2024,-157 2024,-357 2024,-357 2024,-357 2024,-384.487 2022.7,-398.506 2000,-414 1967.41,-436.24 1329.12,-426.878 1290,-432 1284.2,-432.759 1278.19,-433.796 1272.23,-434.987"/>
<polygon fill="black" stroke="black" points="1271.33,-431.599 1262.29,-437.114 1272.8,-438.444 1271.33,-431.599"/>
</g>
<!-- CelsWindow -->
<g id="node13" class="node"><title>CelsWindow</title>
<ellipse fill="none" stroke="black" cx="1046" cy="-450" rx="57.3905" ry="18"/>
<text text-anchor="middle" x="1046" y="-446.3" font-family="Times,serif" font-size="14.00">CelsWindow</text>
</g>
<!-- BlitApp&#45;&gt;CelsWindow -->
<g id="edge17" class="edge"><title>BlitApp&#45;&gt;CelsWindow</title>
<path fill="none" stroke="black" d="M381.179,-57.834C599.535,-57.0561 1661.51,-55.2521 1802,-93 1855.88,-107.478 1910,-101.205 1910,-157 1910,-357 1910,-357 1910,-357 1910,-402.486 1868.34,-400.183 1825,-414 1753.31,-436.858 1222.9,-424.797 1148,-432 1133.34,-433.41 1117.59,-435.663 1102.97,-438.074"/>
<polygon fill="black" stroke="black" points="1102.32,-434.633 1093.05,-439.759 1103.49,-441.534 1102.32,-434.633"/>
</g>
<!-- Tool -->
<g id="node14" class="node"><title>Tool</title>
<ellipse fill="none" stroke="black" cx="1351" cy="-231" rx="27.0966" ry="18"/>
<text text-anchor="middle" x="1351" y="-227.3" font-family="Times,serif" font-size="14.00">Tool</text>
</g>
<!-- BlitApp&#45;&gt;Tool -->
<g id="edge18" class="edge"><title>BlitApp&#45;&gt;Tool</title>
<path fill="none" stroke="black" d="M380.894,-58.3084C573.85,-59.9517 1421.09,-68.5402 1471,-93 1504.98,-109.653 1504.48,-141.038 1490,-176 1470.58,-222.876 1429.65,-195.574 1382,-213 1381.29,-213.261 1380.57,-213.536 1379.85,-213.824"/>
<polygon fill="black" stroke="black" points="1378.2,-210.732 1370.59,-218.106 1381.14,-217.085 1378.2,-210.732"/>
</g>
<!-- Toolbox -->
<g id="node15" class="node"><title>Toolbox</title>
<ellipse fill="none" stroke="black" cx="1498" cy="-356" rx="40.0939" ry="18"/>
<text text-anchor="middle" x="1498" y="-352.3" font-family="Times,serif" font-size="14.00">Toolbox</text>
</g>
<!-- BlitApp&#45;&gt;Toolbox -->
<g id="edge19" class="edge"><title>BlitApp&#45;&gt;Toolbox</title>
<path fill="none" stroke="black" d="M381.08,-57.9475C595.066,-57.7953 1617.22,-58.862 1674,-93 1760.65,-145.095 1806.88,-236.071 1739,-311 1710.21,-342.775 1588.14,-317.937 1547,-330 1541.5,-331.612 1535.89,-333.842 1530.52,-336.311"/>
<polygon fill="black" stroke="black" points="1528.59,-333.358 1521.19,-340.933 1531.7,-339.631 1528.59,-333.358"/>
</g>
<!-- AnimationPropertiesDialog -->
<g id="node16" class="node"><title>AnimationPropertiesDialog</title>
<ellipse fill="none" stroke="black" cx="1515" cy="-450" rx="108.581" ry="18"/>
<text text-anchor="middle" x="1515" y="-446.3" font-family="Times,serif" font-size="14.00">AnimationPropertiesDialog</text>
</g>
<!-- BlitApp&#45;&gt;AnimationPropertiesDialog -->
<g id="edge20" class="edge"><title>BlitApp&#45;&gt;AnimationPropertiesDialog</title>
<path fill="none" stroke="black" d="M381.002,-58.2271C630.118,-59.7472 1990.86,-69.1234 2075,-93 2113.4,-103.897 2138,-117.087 2138,-157 2138,-357 2138,-357 2138,-357 2138,-405.859 2092.58,-408.831 2044,-414 1862.18,-433.343 1815.04,-414.943 1633,-432 1622.43,-432.99 1611.36,-434.267 1600.41,-435.674"/>
<polygon fill="black" stroke="black" points="1599.86,-432.216 1590.41,-436.999 1600.78,-439.155 1599.86,-432.216"/>
</g>
<!-- ColorPalette -->
<g id="node17" class="node"><title>ColorPalette</title>
<ellipse fill="none" stroke="black" cx="1611" cy="-356" rx="54.6905" ry="18"/>
<text text-anchor="middle" x="1611" y="-352.3" font-family="Times,serif" font-size="14.00">ColorPalette</text>
</g>
<!-- BlitApp&#45;&gt;ColorPalette -->
<g id="edge21" class="edge"><title>BlitApp&#45;&gt;ColorPalette</title>
<path fill="none" stroke="black" d="M381.086,-58.015C589.792,-58.228 1568.25,-60.9411 1699,-93 1797.97,-117.265 1833.57,-231.362 1770,-311 1757.32,-326.89 1709.8,-338.688 1669.99,-346.045"/>
<polygon fill="black" stroke="black" points="1669.29,-342.615 1660.06,-347.82 1670.52,-349.506 1669.29,-342.615"/>
</g>
<!-- Canvas&#45;&gt;Frame -->
<g id="edge59" class="edge"><title>Canvas&#45;&gt;Frame</title>
<path fill="none" stroke="black" d="M982.932,-169.066C974.35,-171.699 964.877,-174.278 956,-176 847.282,-197.087 511.176,-219.676 390.607,-227.307"/>
<polygon fill="black" stroke="black" points="390.385,-223.814 380.625,-227.936 390.825,-230.8 390.385,-223.814"/>
</g>
<!-- Canvas&#45;&gt;Cel -->
<g id="edge60" class="edge"><title>Canvas&#45;&gt;Cel</title>
<path fill="none" stroke="black" d="M991.52,-173.106C979.277,-181.183 963.027,-190.308 947,-194.5 877.128,-212.776 694.057,-199.384 622,-194.5 538.503,-188.84 441.374,-173.371 390.061,-164.493"/>
<polygon fill="black" stroke="black" points="390.581,-161.031 380.128,-162.757 389.376,-167.926 390.581,-161.031"/>
</g>
<!-- Canvas&#45;&gt;BlitApp -->
<g id="edge61" class="edge"><title>Canvas&#45;&gt;BlitApp</title>
<path fill="none" stroke="black" d="M996.283,-141.762C985.774,-132.579 971.141,-121.608 956,-116 934.472,-108.026 875.87,-110.007 853,-108 682.596,-93.047 480.523,-72.4158 390.015,-63.0218"/>
<polygon fill="black" stroke="black" points="390.107,-59.5125 379.798,-61.9599 389.383,-66.475 390.107,-59.5125"/>
</g>
<!-- EditorContainer&#45;&gt;BlitApp -->
<g id="edge24" class="edge"><title>EditorContainer&#45;&gt;BlitApp</title>
<path fill="none" stroke="black" d="M1486.49,-213.093C1495,-203.162 1504.52,-189.864 1509,-176 1520.51,-140.405 1527.33,-111.821 1495,-93 1446.71,-64.886 605.918,-59.1894 391.464,-58.1917"/>
<polygon fill="black" stroke="black" points="391.161,-54.6904 381.145,-58.1451 391.129,-61.6903 391.161,-54.6904"/>
</g>
<!-- EditorContainer&#45;&gt;Canvas -->
<g id="edge25" class="edge"><title>EditorContainer&#45;&gt;Canvas</title>
<path fill="none" stroke="black" d="M1420.64,-218.702C1410.54,-216.618 1399.95,-214.598 1390,-213 1315.4,-201.021 1125.11,-195.093 1052,-176 1050.34,-175.567 1048.67,-175.078 1046.99,-174.545"/>
<polygon fill="black" stroke="black" points="1048.03,-171.2 1037.43,-171.113 1045.66,-177.788 1048.03,-171.2"/>
</g>
<!-- StatusBar&#45;&gt;BlitApp -->
<g id="edge23" class="edge"><title>StatusBar&#45;&gt;BlitApp</title>
<path fill="none" stroke="black" d="M1375.87,-437.182C1382.75,-435.083 1390.05,-433.19 1397,-432 1673.54,-384.686 1750.06,-452.247 2028,-414 2068.43,-408.436 2100,-397.814 2100,-357 2100,-357 2100,-357 2100,-157 2100,-119.783 2081.12,-105.317 2046,-93 1966.01,-64.9455 663.486,-59.0709 391.527,-58.1481"/>
<polygon fill="black" stroke="black" points="391.196,-54.6471 381.184,-58.1138 391.172,-61.6471 391.196,-54.6471"/>
</g>
<!-- MenuBar&#45;&gt;BlitApp -->
<g id="edge22" class="edge"><title>MenuBar&#45;&gt;BlitApp</title>
<path fill="none" stroke="black" d="M1730.03,-447.429C1809.63,-444.162 1982.61,-435.106 2127,-414 2172.74,-407.314 2214,-403.226 2214,-357 2214,-357 2214,-357 2214,-157 2214,-113.852 2183.02,-102.801 2141,-93 2053.57,-72.6062 672.078,-60.6129 391.492,-58.3808"/>
<polygon fill="black" stroke="black" points="391.246,-54.8788 381.219,-58.2995 391.191,-61.8786 391.246,-54.8788"/>
</g>
<!-- TimelineWindow&#45;&gt;Frame -->
<g id="edge29" class="edge"><title>TimelineWindow&#45;&gt;Frame</title>
<path fill="none" stroke="black" d="M611.099,-441.534C584.972,-438.544 554.556,-435.084 527,-432 490.564,-427.922 388.643,-440.204 363,-414 322.677,-372.795 331.547,-298.357 340.082,-258.646"/>
<polygon fill="black" stroke="black" points="343.498,-259.411 342.327,-248.881 336.676,-257.843 343.498,-259.411"/>
</g>
<!-- TimelineWindow&#45;&gt;BlitApp -->
<g id="edge30" class="edge"><title>TimelineWindow&#45;&gt;BlitApp</title>
<path fill="none" stroke="black" d="M746.004,-444.513C807.602,-440.702 899.722,-435.334 980,-432 1022.55,-430.233 1708.28,-424.764 1746,-405 1862.79,-343.804 1891.69,-221.792 1813,-116 1799.83,-98.2951 1790.36,-98.5253 1769,-93 1633.58,-57.974 627.048,-57.5061 391.3,-57.8838"/>
<polygon fill="black" stroke="black" points="390.976,-54.3842 380.982,-57.9017 390.988,-61.3842 390.976,-54.3842"/>
</g>
<!-- Timeline -->
<g id="node20" class="node"><title>Timeline</title>
<ellipse fill="none" stroke="black" cx="721" cy="-356" rx="42.7926" ry="18"/>
<text text-anchor="middle" x="721" y="-352.3" font-family="Times,serif" font-size="14.00">Timeline</text>
</g>
<!-- TimelineWindow&#45;&gt;Timeline -->
<g id="edge31" class="edge"><title>TimelineWindow&#45;&gt;Timeline</title>
<path fill="none" stroke="black" d="M684.464,-431.696C691.169,-417.988 700.642,-398.621 708.262,-383.042"/>
<polygon fill="black" stroke="black" points="711.476,-384.437 712.726,-373.916 705.188,-381.361 711.476,-384.437"/>
</g>
<!-- Tick -->
<g id="node21" class="node"><title>Tick</title>
<ellipse fill="none" stroke="black" cx="652" cy="-158" rx="27" ry="18"/>
<text text-anchor="middle" x="652" y="-154.3" font-family="Times,serif" font-size="14.00">Tick</text>
</g>
<!-- TimelineWindow&#45;&gt;Tick -->
<g id="edge32" class="edge"><title>TimelineWindow&#45;&gt;Tick</title>
<path fill="none" stroke="black" d="M665.807,-431.907C651.349,-406.561 625.576,-357.039 616,-311 607.131,-268.357 603.378,-254.687 616,-213 619.365,-201.886 625.855,-190.968 632.409,-181.891"/>
<polygon fill="black" stroke="black" points="635.303,-183.869 638.612,-173.804 629.749,-179.608 635.303,-183.869"/>
</g>
<!-- Cursor -->
<g id="node22" class="node"><title>Cursor</title>
<ellipse fill="none" stroke="black" cx="659" cy="-231" rx="34.394" ry="18"/>
<text text-anchor="middle" x="659" y="-227.3" font-family="Times,serif" font-size="14.00">Cursor</text>
</g>
<!-- TimelineWindow&#45;&gt;Cursor -->
<g id="edge33" class="edge"><title>TimelineWindow&#45;&gt;Cursor</title>
<path fill="none" stroke="black" d="M672.875,-431.919C671.493,-423.791 669.965,-413.921 669,-405 663.453,-353.72 660.851,-293.533 659.737,-259.369"/>
<polygon fill="black" stroke="black" points="663.231,-259.123 659.425,-249.235 656.234,-259.338 663.231,-259.123"/>
</g>
<!-- ToolsWindow&#45;&gt;BlitApp -->
<g id="edge34" class="edge"><title>ToolsWindow&#45;&gt;BlitApp</title>
<path fill="none" stroke="black" d="M1262.29,-437.157C1271.38,-435.088 1280.96,-433.213 1290,-432 1541.21,-398.316 1607.15,-431.513 1860,-414 1921.32,-409.753 1986,-418.464 1986,-357 1986,-357 1986,-357 1986,-157 1986,-108.639 1945.55,-101.836 1898,-93 1747.16,-64.9683 639.306,-59.127 391.204,-58.1656"/>
<polygon fill="black" stroke="black" points="391.064,-54.6651 381.051,-58.1271 391.038,-61.6651 391.064,-54.6651"/>
</g>
<!-- ToolsWindow&#45;&gt;Toolbox -->
<g id="edge35" class="edge"><title>ToolsWindow&#45;&gt;Toolbox</title>
<path fill="none" stroke="black" d="M1264.35,-437.664C1272.85,-435.675 1281.68,-433.701 1290,-432 1360.23,-417.647 1385.15,-437.567 1449,-405 1460.32,-399.225 1470.72,-389.922 1479,-381.036"/>
<polygon fill="black" stroke="black" points="1481.71,-383.251 1485.7,-373.434 1476.46,-378.624 1481.71,-383.251"/>
</g>
<!-- ToolsWindow&#45;&gt;ColorPalette -->
<g id="edge36" class="edge"><title>ToolsWindow&#45;&gt;ColorPalette</title>
<path fill="none" stroke="black" d="M1263.51,-437.406C1272.25,-435.395 1281.38,-433.478 1290,-432 1403.2,-412.587 1440.09,-446.969 1547,-405 1561.56,-399.282 1575.7,-389.301 1586.97,-379.917"/>
<polygon fill="black" stroke="black" points="1589.38,-382.459 1594.64,-373.258 1584.79,-377.175 1589.38,-382.459"/>
</g>
<!-- ColorChooser -->
<g id="node23" class="node"><title>ColorChooser</title>
<ellipse fill="none" stroke="black" cx="1254" cy="-356" rx="59.5901" ry="18"/>
<text text-anchor="middle" x="1254" y="-352.3" font-family="Times,serif" font-size="14.00">ColorChooser</text>
</g>
<!-- ToolsWindow&#45;&gt;ColorChooser -->
<g id="edge37" class="edge"><title>ToolsWindow&#45;&gt;ColorChooser</title>
<path fill="none" stroke="black" d="M1225.58,-431.696C1230.75,-418.117 1238.03,-398.986 1243.92,-383.484"/>
<polygon fill="black" stroke="black" points="1247.28,-384.507 1247.56,-373.916 1240.74,-382.018 1247.28,-384.507"/>
</g>
<!-- RGBSlider -->
<g id="node24" class="node"><title>RGBSlider</title>
<ellipse fill="none" stroke="black" cx="1126" cy="-356" rx="50.0912" ry="18"/>
<text text-anchor="middle" x="1126" y="-352.3" font-family="Times,serif" font-size="14.00">RGBSlider</text>
</g>
<!-- ToolsWindow&#45;&gt;RGBSlider -->
<g id="edge38" class="edge"><title>ToolsWindow&#45;&gt;RGBSlider</title>
<path fill="none" stroke="black" d="M1202.37,-432.552C1187.69,-418.031 1166.13,-396.695 1149.65,-380.397"/>
<polygon fill="black" stroke="black" points="1152.05,-377.85 1142.48,-373.305 1147.13,-382.826 1152.05,-377.85"/>
</g>
<!-- ColorFrame -->
<g id="node25" class="node"><title>ColorFrame</title>
<ellipse fill="none" stroke="black" cx="1386" cy="-356" rx="53.8905" ry="18"/>
<text text-anchor="middle" x="1386" y="-352.3" font-family="Times,serif" font-size="14.00">ColorFrame</text>
</g>
<!-- ToolsWindow&#45;&gt;ColorFrame -->
<g id="edge39" class="edge"><title>ToolsWindow&#45;&gt;ColorFrame</title>
<path fill="none" stroke="black" d="M1258.14,-435.96C1278.97,-428.275 1304.63,-417.592 1326,-405 1338.15,-397.84 1350.5,-388.406 1360.81,-379.798"/>
<polygon fill="black" stroke="black" points="1363.28,-382.293 1368.6,-373.131 1358.73,-376.975 1363.28,-382.293"/>
</g>
<!-- CelsWindow&#45;&gt;Frame -->
<g id="edge40" class="edge"><title>CelsWindow&#45;&gt;Frame</title>
<path fill="none" stroke="black" d="M990.303,-445.651C833.918,-436.193 401.756,-409.666 396,-405 373.374,-386.658 357.697,-303.129 350.861,-259.196"/>
<polygon fill="black" stroke="black" points="354.305,-258.561 349.352,-249.195 347.383,-259.606 354.305,-258.561"/>
</g>
<!-- CelsWindow&#45;&gt;Cel -->
<g id="edge41" class="edge"><title>CelsWindow&#45;&gt;Cel</title>
<path fill="none" stroke="black" d="M1093.3,-439.72C1110.46,-436.725 1130.04,-433.732 1148,-432 1184.62,-428.467 1784.34,-440.367 1810,-414 1810.31,-413.681 1810.22,-413.388 1810,-413 1775.63,-351.522 1742.6,-349.773 1675,-330 1561.73,-296.867 724.433,-349.874 613,-311 545.35,-287.4 547.099,-248.738 485,-213 453.617,-194.939 415.014,-179.795 387.869,-170.184"/>
<polygon fill="black" stroke="black" points="388.661,-166.754 378.066,-166.777 386.363,-173.366 388.661,-166.754"/>
</g>
<!-- CelsWindow&#45;&gt;BlitApp -->
<g id="edge42" class="edge"><title>CelsWindow&#45;&gt;BlitApp</title>
<path fill="none" stroke="black" d="M1093.05,-439.753C1110.27,-436.741 1129.95,-433.73 1148,-432 1454.7,-402.603 1534.11,-441.284 1841,-414 1894.67,-409.228 1948,-410.882 1948,-357 1948,-357 1948,-357 1948,-157 1948,-105.351 1901.95,-101.443 1851,-93 1704.53,-68.7294 634.766,-60.0012 391.241,-58.3179"/>
<polygon fill="black" stroke="black" points="390.958,-54.816 380.934,-58.2475 390.91,-61.8159 390.958,-54.816"/>
</g>
<!-- CelWidget -->
<g id="node26" class="node"><title>CelWidget</title>
<ellipse fill="none" stroke="black" cx="1009" cy="-356" rx="49.2915" ry="18"/>
<text text-anchor="middle" x="1009" y="-352.3" font-family="Times,serif" font-size="14.00">CelWidget</text>
</g>
<!-- CelsWindow&#45;&gt;CelWidget -->
<g id="edge43" class="edge"><title>CelsWindow&#45;&gt;CelWidget</title>
<path fill="none" stroke="black" d="M1033.85,-432.126C1026.9,-418.594 1018.88,-399.35 1013.56,-383.726"/>
<polygon fill="black" stroke="black" points="1016.85,-382.544 1010.48,-374.079 1010.18,-384.669 1016.85,-382.544"/>
</g>
<!-- Toolbox&#45;&gt;Tool -->
<g id="edge44" class="edge"><title>Toolbox&#45;&gt;Tool</title>
<path fill="none" stroke="black" d="M1473.76,-341.448C1465.99,-337.432 1457.27,-333.245 1449,-330 1420.19,-318.69 1404.93,-331.792 1382,-311 1367.18,-297.558 1359.36,-276.144 1355.28,-259"/>
<polygon fill="black" stroke="black" points="1358.66,-258.064 1353.2,-248.986 1351.81,-259.49 1358.66,-258.064"/>
</g>
<!-- AnimationPropertiesDialog&#45;&gt;Animation -->
<g id="edge28" class="edge"><title>AnimationPropertiesDialog&#45;&gt;Animation</title>
<path fill="none" stroke="black" d="M1486.23,-467.621C1461.48,-481.685 1424.28,-500.269 1389,-508 1362.22,-513.868 428.197,-516.086 402,-508 379.905,-501.18 358.423,-486.429 342.583,-473.511"/>
<polygon fill="black" stroke="black" points="344.739,-470.751 334.84,-466.974 340.223,-476.099 344.739,-470.751"/>
</g>
<!-- ClickableColorFrame -->
<g id="node27" class="node"><title>ClickableColorFrame</title>
<ellipse fill="none" stroke="black" cx="1643" cy="-231" rx="87.1846" ry="18"/>
<text text-anchor="middle" x="1643" y="-227.3" font-family="Times,serif" font-size="14.00">ClickableColorFrame</text>
</g>
<!-- ColorPalette&#45;&gt;ClickableColorFrame -->
<g id="edge45" class="edge"><title>ColorPalette&#45;&gt;ClickableColorFrame</title>
<path fill="none" stroke="black" d="M1615.45,-337.897C1620.75,-317.542 1629.66,-283.293 1635.91,-259.269"/>
<polygon fill="black" stroke="black" points="1639.35,-259.913 1638.49,-249.354 1632.58,-258.15 1639.35,-259.913"/>
</g>
<!-- Spritesheet -->
<g id="node18" class="node"><title>Spritesheet</title>
<ellipse fill="none" stroke="black" cx="468" cy="-450" rx="50.0912" ry="18"/>
<text text-anchor="middle" x="468" y="-446.3" font-family="Times,serif" font-size="14.00">Spritesheet</text>
</g>
<!-- Spritesheet&#45;&gt;Animation -->
<g id="edge26" class="edge"><title>Spritesheet&#45;&gt;Animation</title>
<path fill="none" stroke="black" d="M417.776,-450C403.876,-450 389.977,-450 376.078,-450"/>
<polygon fill="black" stroke="black" points="375.957,-446.5 365.957,-450 375.957,-453.5 375.957,-446.5"/>
</g>
<!-- SelfChangingColorFrame -->
<g id="node19" class="node"><title>SelfChangingColorFrame</title>
<ellipse fill="none" stroke="black" cx="507" cy="-356" rx="102.082" ry="18"/>
<text text-anchor="middle" x="507" y="-352.3" font-family="Times,serif" font-size="14.00">SelfChangingColorFrame</text>
</g>
<!-- Spritesheet&#45;&gt;SelfChangingColorFrame -->
<g id="edge27" class="edge"><title>Spritesheet&#45;&gt;SelfChangingColorFrame</title>
<path fill="none" stroke="black" d="M475.153,-432.126C480.89,-418.594 489.047,-399.35 495.67,-383.726"/>
<polygon fill="black" stroke="black" points="499.08,-384.652 499.76,-374.079 492.635,-381.92 499.08,-384.652"/>
</g>
<!-- Timeline&#45;&gt;XSheet -->
<g id="edge48" class="edge"><title>Timeline&#45;&gt;XSheet</title>
<path fill="none" stroke="black" d="M710.983,-373.796C701.38,-388.86 685.353,-409.409 665,-418.5 638.319,-430.418 430.462,-425.124 402,-418.5 366.828,-410.314 330.187,-390.931 305.354,-375.904"/>
<polygon fill="black" stroke="black" points="307.11,-372.875 296.763,-370.593 303.429,-378.829 307.11,-372.875"/>
</g>
<!-- Timeline&#45;&gt;Frame -->
<g id="edge49" class="edge"><title>Timeline&#45;&gt;Frame</title>
<path fill="none" stroke="black" d="M698.393,-340.503C690.91,-336.39 682.354,-332.386 674,-330 613.819,-312.813 446.176,-344.007 393,-311 374,-299.206 361.979,-276.462 355.012,-258.395"/>
<polygon fill="black" stroke="black" points="358.297,-257.187 351.648,-248.938 351.702,-259.532 358.297,-257.187"/>
</g>
<!-- Timeline&#45;&gt;Tick -->
<g id="edge50" class="edge"><title>Timeline&#45;&gt;Tick</title>
<path fill="none" stroke="black" d="M744.157,-340.477C751.528,-336.466 759.881,-332.527 768,-330 803.241,-319.031 908.44,-338.551 933,-311 961.983,-278.488 960.741,-246.579 933,-213 902.454,-176.025 758.128,-164.107 689.036,-160.482"/>
<polygon fill="black" stroke="black" points="689.177,-156.984 679.016,-159.987 688.831,-163.976 689.177,-156.984"/>
</g>
<!-- Timeline&#45;&gt;Cursor -->
<g id="edge51" class="edge"><title>Timeline&#45;&gt;Cursor</title>
<path fill="none" stroke="black" d="M712.509,-338.155C702.028,-317.361 684.097,-281.79 671.908,-257.608"/>
<polygon fill="black" stroke="black" points="675.015,-255.996 667.388,-248.641 668.764,-259.146 675.015,-255.996"/>
</g>
<!-- Ruler -->
<g id="node28" class="node"><title>Ruler</title>
<ellipse fill="none" stroke="black" cx="742" cy="-231" rx="30.5947" ry="18"/>
<text text-anchor="middle" x="742" y="-227.3" font-family="Times,serif" font-size="14.00">Ruler</text>
</g>
<!-- Timeline&#45;&gt;Ruler -->
<g id="edge52" class="edge"><title>Timeline&#45;&gt;Ruler</title>
<path fill="none" stroke="black" d="M723.92,-337.897C727.415,-317.427 733.309,-282.905 737.414,-258.863"/>
<polygon fill="black" stroke="black" points="740.872,-259.404 739.105,-248.957 733.972,-258.226 740.872,-259.404"/>
</g>
<!-- TriangleMarker -->
<g id="node29" class="node"><title>TriangleMarker</title>
<ellipse fill="none" stroke="black" cx="857" cy="-231" rx="66.8882" ry="18"/>
<text text-anchor="middle" x="857" y="-227.3" font-family="Times,serif" font-size="14.00">TriangleMarker</text>
</g>
<!-- Timeline&#45;&gt;TriangleMarker -->
<g id="edge53" class="edge"><title>Timeline&#45;&gt;TriangleMarker</title>
<path fill="none" stroke="black" d="M743.204,-340.467C755.114,-332.31 769.807,-321.654 782,-311 801.582,-293.89 821.765,-272.37 836.254,-256.112"/>
<polygon fill="black" stroke="black" points="838.893,-258.412 842.882,-248.597 833.643,-253.782 838.893,-258.412"/>
</g>
<!-- Tick&#45;&gt;Frame -->
<g id="edge54" class="edge"><title>Tick&#45;&gt;Frame</title>
<path fill="none" stroke="black" d="M625.957,-163.112C578.918,-170.829 476.878,-188.901 393,-213 389.809,-213.917 386.522,-214.949 383.243,-216.04"/>
<polygon fill="black" stroke="black" points="381.82,-212.83 373.534,-219.433 384.129,-219.438 381.82,-212.83"/>
</g>
<!-- Tick&#45;&gt;BlitApp -->
<g id="edge55" class="edge"><title>Tick&#45;&gt;BlitApp</title>
<path fill="none" stroke="black" d="M628.786,-148.466C593.881,-135.749 525.711,-111.357 467,-93 439.898,-84.5263 409.194,-75.9152 384.998,-69.3547"/>
<polygon fill="black" stroke="black" points="385.623,-65.8983 375.057,-66.675 383.801,-72.6571 385.623,-65.8983"/>
</g>
<!-- Cursor&#45;&gt;Frame -->
<g id="edge56" class="edge"><title>Cursor&#45;&gt;Frame</title>
<path fill="none" stroke="black" d="M624.499,-231C546.763,-231 469.027,-231 391.291,-231"/>
<polygon fill="black" stroke="black" points="390.82,-227.5 380.82,-231 390.82,-234.5 390.82,-227.5"/>
</g>
<!-- Cursor&#45;&gt;BlitApp -->
<g id="edge57" class="edge"><title>Cursor&#45;&gt;BlitApp</title>
<path fill="none" stroke="black" d="M684.041,-218.537C689.829,-216.33 696.04,-214.302 702,-213 776.791,-196.659 1337.34,-231.567 1390,-176 1408.34,-156.644 1408.33,-135.37 1390,-116 1355.26,-79.2871 593.4,-62.6428 391.003,-58.8593"/>
<polygon fill="black" stroke="black" points="391.023,-55.3591 380.96,-58.6736 390.894,-62.3579 391.023,-55.3591"/>
</g>
<!-- Cursor&#45;&gt;Tick -->
<g id="edge58" class="edge"><title>Cursor&#45;&gt;Tick</title>
<path fill="none" stroke="black" d="M657.305,-212.813C656.514,-204.789 655.554,-195.047 654.669,-186.069"/>
<polygon fill="black" stroke="black" points="658.143,-185.637 653.679,-176.029 651.177,-186.324 658.143,-185.637"/>
</g>
<!-- CelWidget&#45;&gt;Cel -->
<g id="edge46" class="edge"><title>CelWidget&#45;&gt;Cel</title>
<path fill="none" stroke="black" d="M983.61,-340.535C975.098,-336.37 965.381,-332.327 956,-330 866.182,-307.716 626.432,-344.066 540,-311 468.603,-283.686 404.088,-217.556 373.206,-182.202"/>
<polygon fill="black" stroke="black" points="375.612,-179.632 366.44,-174.328 370.303,-184.194 375.612,-179.632"/>
</g>
<!-- CelWidget&#45;&gt;CelsWindow -->
<g id="edge47" class="edge"><title>CelWidget&#45;&gt;CelsWindow</title>
<path fill="none" stroke="black" d="M1021.01,-373.607C1027.96,-387.075 1035.99,-406.327 1041.35,-422.006"/>
<polygon fill="black" stroke="black" points="1038.07,-423.237 1044.45,-431.696 1044.74,-421.105 1038.07,-423.237"/>
</g>
<!-- Pen -->
<g id="node30" class="node"><title>Pen</title>
<ellipse fill="none" stroke="black" cx="1003" cy="-231" rx="27" ry="18"/>
<text text-anchor="middle" x="1003" y="-227.3" font-family="Times,serif" font-size="14.00">Pen</text>
</g>
<!-- Pen&#45;&gt;Cel -->
<g id="edge62" class="edge"><title>Pen&#45;&gt;Cel</title>
<path fill="none" stroke="black" d="M980.921,-220.461C973.183,-217.538 964.34,-214.658 956,-213 783.2,-178.647 735.132,-214.204 560,-195 499.577,-188.374 430.077,-175.017 389.217,-166.567"/>
<polygon fill="black" stroke="black" points="389.727,-163.098 379.222,-164.48 388.295,-169.95 389.727,-163.098"/>
</g>
<!-- Pen&#45;&gt;BlitApp -->
<g id="edge63" class="edge"><title>Pen&#45;&gt;BlitApp</title>
<path fill="none" stroke="black" d="M1023.05,-218.877C1028.12,-216.535 1033.64,-214.364 1039,-213 1119.51,-192.51 1362.25,-243.268 1411,-176 1426.65,-154.407 1427.01,-137.329 1411,-116 1389.05,-86.7502 1368.11,-98.8017 1332,-93 1147.81,-63.4035 564.835,-58.8341 391.238,-58.1287"/>
<polygon fill="black" stroke="black" points="391.131,-54.6284 381.118,-58.0902 391.105,-61.6284 391.131,-54.6284"/>
</g>
<!-- Pen&#45;&gt;Canvas -->
<g id="edge64" class="edge"><title>Pen&#45;&gt;Canvas</title>
<path fill="none" stroke="black" d="M1005.18,-212.813C1006.2,-204.789 1007.43,-195.047 1008.57,-186.069"/>
<polygon fill="black" stroke="black" points="1012.06,-186.39 1009.84,-176.029 1005.11,-185.509 1012.06,-186.39"/>
</g>
<!-- Brush -->
<g id="node31" class="node"><title>Brush</title>
<ellipse fill="none" stroke="black" cx="1080" cy="-231" rx="31.6951" ry="18"/>
<text text-anchor="middle" x="1080" y="-227.3" font-family="Times,serif" font-size="14.00">Brush</text>
</g>
<!-- Brush&#45;&gt;Cel -->
<g id="edge65" class="edge"><title>Brush&#45;&gt;Cel</title>
<path fill="none" stroke="black" d="M1056.61,-218.645C1050.97,-216.373 1044.87,-214.291 1039,-213 941.039,-191.456 687.838,-204.641 588,-195 517.402,-188.182 435.659,-174.199 389.873,-165.808"/>
<polygon fill="black" stroke="black" points="390.32,-162.331 379.85,-163.955 389.047,-169.214 390.32,-162.331"/>
</g>
<!-- Brush&#45;&gt;BlitApp -->
<g id="edge66" class="edge"><title>Brush&#45;&gt;BlitApp</title>
<path fill="none" stroke="black" d="M1103.41,-218.747C1109.05,-216.471 1115.15,-214.361 1121,-213 1243.33,-184.564 1284.19,-235.693 1403,-195 1417.23,-190.127 1423.96,-189.289 1431,-176 1443.49,-152.437 1445.3,-138.509 1431,-116 1418.1,-95.6938 1405.39,-98.6309 1382,-93 1285.2,-69.6966 583.941,-60.5739 391.012,-58.4893"/>
<polygon fill="black" stroke="black" points="390.923,-54.9883 380.886,-58.3814 390.848,-61.9879 390.923,-54.9883"/>
</g>
<!-- Brush&#45;&gt;Canvas -->
<g id="edge67" class="edge"><title>Brush&#45;&gt;Canvas</title>
<path fill="none" stroke="black" d="M1065.58,-214.943C1056.42,-205.378 1044.38,-192.81 1034.04,-182.01"/>
<polygon fill="black" stroke="black" points="1036.31,-179.328 1026.87,-174.526 1031.26,-184.169 1036.31,-179.328"/>
</g>
<!-- Eraser -->
<g id="node32" class="node"><title>Eraser</title>
<ellipse fill="none" stroke="black" cx="1163" cy="-231" rx="33.2948" ry="18"/>
<text text-anchor="middle" x="1163" y="-227.3" font-family="Times,serif" font-size="14.00">Eraser</text>
</g>
<!-- Eraser&#45;&gt;Cel -->
<g id="edge68" class="edge"><title>Eraser&#45;&gt;Cel</title>
<path fill="none" stroke="black" d="M1138.55,-218.605C1132.89,-216.394 1126.82,-214.348 1121,-213 1103,-208.834 542.274,-171.473 391.187,-161.46"/>
<polygon fill="black" stroke="black" points="391.239,-157.955 381.029,-160.787 390.776,-164.94 391.239,-157.955"/>
</g>
<!-- Eraser&#45;&gt;BlitApp -->
<g id="edge69" class="edge"><title>Eraser&#45;&gt;BlitApp</title>
<path fill="none" stroke="black" d="M1187.62,-218.847C1193.53,-216.567 1199.9,-214.43 1206,-213 1298.49,-191.304 1328.53,-223.987 1419,-195 1434.75,-189.953 1442.82,-190.375 1451,-176 1464.19,-152.825 1463.34,-139.64 1451,-116 1442.73,-100.151 1434.97,-98.6339 1418,-93 1319.98,-60.4507 589.011,-58.0167 391.222,-57.9589"/>
<polygon fill="black" stroke="black" points="391.124,-54.459 381.124,-57.9579 391.123,-61.459 391.124,-54.459"/>
</g>
<!-- Eraser&#45;&gt;Canvas -->
<g id="edge70" class="edge"><title>Eraser&#45;&gt;Canvas</title>
<path fill="none" stroke="black" d="M1138.74,-218.593C1113.8,-206.865 1074.73,-188.495 1046.56,-175.25"/>
<polygon fill="black" stroke="black" points="1048,-172.06 1037.46,-170.972 1045.02,-178.395 1048,-172.06"/>
</g>
<!-- Movetool -->
<g id="node33" class="node"><title>Movetool</title>
<ellipse fill="none" stroke="black" cx="1260" cy="-231" rx="45.4919" ry="18"/>
<text text-anchor="middle" x="1260" y="-227.3" font-family="Times,serif" font-size="14.00">Movetool</text>
</g>
<!-- Movetool&#45;&gt;BlitApp -->
<g id="edge71" class="edge"><title>Movetool&#45;&gt;BlitApp</title>
<path fill="none" stroke="black" d="M1293.52,-218.759C1300.56,-216.646 1307.98,-214.601 1315,-213 1384.05,-197.245 1433.79,-236.866 1470,-176 1489.63,-142.999 1481.4,-107.88 1446,-93 1396.83,-72.3329 599.119,-61.1514 391.224,-58.5793"/>
<polygon fill="black" stroke="black" points="390.964,-55.0759 380.922,-58.4529 390.878,-62.0754 390.964,-55.0759"/>
</g>
<!-- Movetool&#45;&gt;Canvas -->
<g id="edge72" class="edge"><title>Movetool&#45;&gt;Canvas</title>
<path fill="none" stroke="black" d="M1225.42,-219.157C1218.66,-217.08 1211.62,-214.947 1205,-213 1152.65,-197.589 1092,-180.791 1052.87,-170.091"/>
<polygon fill="black" stroke="black" points="1053.73,-166.698 1043.16,-167.441 1051.89,-173.451 1053.73,-166.698"/>
</g>
</g>
</svg>
